%TF.GenerationSoftware,KiCad,Pcbnew,7.0.7*%
%TF.CreationDate,2023-09-27T10:27:32+03:00*%
%TF.ProjectId,Bionluk Proje,42696f6e-6c75-46b2-9050-726f6a652e6b,rev?*%
%TF.SameCoordinates,Original*%
%TF.FileFunction,Soldermask,Bot*%
%TF.FilePolarity,Negative*%
%FSLAX46Y46*%
G04 Gerber Fmt 4.6, Leading zero omitted, Abs format (unit mm)*
G04 Created by KiCad (PCBNEW 7.0.7) date 2023-09-27 10:27:32*
%MOMM*%
%LPD*%
G01*
G04 APERTURE LIST*
%ADD10C,1.600000*%
%ADD11O,1.600000X1.600000*%
%ADD12R,2.100000X2.100000*%
%ADD13C,2.100000*%
%ADD14C,2.154000*%
%ADD15R,1.700000X1.700000*%
%ADD16O,1.700000X1.700000*%
%ADD17R,1.500000X1.500000*%
%ADD18C,1.500000*%
G04 APERTURE END LIST*
D10*
%TO.C,R2*%
X82050000Y-57090000D03*
D11*
X82050000Y-41850000D03*
%TD*%
D10*
%TO.C,R3*%
X96220000Y-60650000D03*
D11*
X80980000Y-60650000D03*
%TD*%
D12*
%TO.C,J3*%
X73900000Y-43310000D03*
D13*
X73900000Y-48310000D03*
X73900000Y-53310000D03*
%TD*%
D14*
%TO.C,K1*%
X94260000Y-42950000D03*
X94260000Y-54950000D03*
X92260000Y-48950000D03*
X106460000Y-42950000D03*
X106460000Y-54950000D03*
%TD*%
D15*
%TO.C,J1*%
X119250000Y-42600000D03*
D16*
X116710000Y-42600000D03*
X119250000Y-45140000D03*
X116710000Y-45140000D03*
X119250000Y-47680000D03*
X116710000Y-47680000D03*
X119250000Y-50220000D03*
X116710000Y-50220000D03*
X119250000Y-52760000D03*
X116710000Y-52760000D03*
X119250000Y-55300000D03*
X116710000Y-55300000D03*
X119250000Y-57840000D03*
X116710000Y-57840000D03*
X119250000Y-60380000D03*
X116710000Y-60380000D03*
X119250000Y-62920000D03*
X116710000Y-62920000D03*
X119250000Y-65460000D03*
X116710000Y-65460000D03*
X119250000Y-68000000D03*
X116710000Y-68000000D03*
X119250000Y-70540000D03*
X116710000Y-70540000D03*
X119250000Y-73080000D03*
X116710000Y-73080000D03*
%TD*%
D12*
%TO.C,J6*%
X73820000Y-74740000D03*
D13*
X73820000Y-69740000D03*
X73820000Y-64740000D03*
X73820000Y-59740000D03*
%TD*%
D10*
%TO.C,R1*%
X86700000Y-41680000D03*
D11*
X86700000Y-56920000D03*
%TD*%
D17*
%TO.C,Q1*%
X101415000Y-58470000D03*
D18*
X101415000Y-61070000D03*
X101415000Y-63670000D03*
%TD*%
D12*
%TO.C,J4*%
X95770000Y-71550000D03*
D13*
X100770000Y-71550000D03*
X105770000Y-71550000D03*
%TD*%
M02*
