%TF.GenerationSoftware,KiCad,Pcbnew,7.0.7*%
%TF.CreationDate,2023-09-27T10:27:32+03:00*%
%TF.ProjectId,Bionluk Proje,42696f6e-6c75-46b2-9050-726f6a652e6b,rev?*%
%TF.SameCoordinates,Original*%
%TF.FileFunction,Copper,L1,Top*%
%TF.FilePolarity,Positive*%
%FSLAX46Y46*%
G04 Gerber Fmt 4.6, Leading zero omitted, Abs format (unit mm)*
G04 Created by KiCad (PCBNEW 7.0.7) date 2023-09-27 10:27:32*
%MOMM*%
%LPD*%
G01*
G04 APERTURE LIST*
%TA.AperFunction,ComponentPad*%
%ADD10C,1.600000*%
%TD*%
%TA.AperFunction,ComponentPad*%
%ADD11O,1.600000X1.600000*%
%TD*%
%TA.AperFunction,ComponentPad*%
%ADD12R,2.100000X2.100000*%
%TD*%
%TA.AperFunction,ComponentPad*%
%ADD13C,2.100000*%
%TD*%
%TA.AperFunction,ComponentPad*%
%ADD14C,1.950000*%
%TD*%
%TA.AperFunction,ComponentPad*%
%ADD15R,1.700000X1.700000*%
%TD*%
%TA.AperFunction,ComponentPad*%
%ADD16O,1.700000X1.700000*%
%TD*%
%TA.AperFunction,ComponentPad*%
%ADD17R,1.500000X1.500000*%
%TD*%
%TA.AperFunction,ComponentPad*%
%ADD18C,1.500000*%
%TD*%
%TA.AperFunction,ViaPad*%
%ADD19C,2.000000*%
%TD*%
%TA.AperFunction,Conductor*%
%ADD20C,0.500000*%
%TD*%
%TA.AperFunction,Conductor*%
%ADD21C,0.250000*%
%TD*%
G04 APERTURE END LIST*
D10*
%TO.P,R2,1*%
%TO.N,Net-(J1-Pin_16)*%
X82050000Y-57090000D03*
D11*
%TO.P,R2,2*%
%TO.N,Net-(J1-Pin_20)*%
X82050000Y-41850000D03*
%TD*%
D10*
%TO.P,R3,1*%
%TO.N,Net-(J1-Pin_12)*%
X96220000Y-60650000D03*
D11*
%TO.P,R3,2*%
%TO.N,Net-(Q1-B)*%
X80980000Y-60650000D03*
%TD*%
D12*
%TO.P,J3,1,Pin_1*%
%TO.N,Net-(J3-Pin_1)*%
X73900000Y-43310000D03*
D13*
%TO.P,J3,2,Pin_2*%
%TO.N,Net-(J3-Pin_2)*%
X73900000Y-48310000D03*
%TO.P,J3,3,Pin_3*%
%TO.N,Net-(J3-Pin_3)*%
X73900000Y-53310000D03*
%TD*%
D14*
%TO.P,K1,COIL1*%
%TO.N,Net-(Q1-C)*%
X94260000Y-42950000D03*
%TO.P,K1,COIL2*%
%TO.N,Net-(J1-Pin_2)*%
X94260000Y-54950000D03*
%TO.P,K1,COM*%
%TO.N,Net-(J3-Pin_2)*%
X92260000Y-48950000D03*
%TO.P,K1,NC*%
%TO.N,Net-(J3-Pin_1)*%
X106460000Y-42950000D03*
%TO.P,K1,NO*%
%TO.N,Net-(J3-Pin_3)*%
X106460000Y-54950000D03*
%TD*%
D15*
%TO.P,J1,1,Pin_1*%
%TO.N,unconnected-(J1-Pin_1-Pad1)*%
X119250000Y-42600000D03*
D16*
%TO.P,J1,2,Pin_2*%
%TO.N,Net-(J1-Pin_2)*%
X116710000Y-42600000D03*
%TO.P,J1,3,Pin_3*%
%TO.N,unconnected-(J1-Pin_3-Pad3)*%
X119250000Y-45140000D03*
%TO.P,J1,4,Pin_4*%
%TO.N,unconnected-(J1-Pin_4-Pad4)*%
X116710000Y-45140000D03*
%TO.P,J1,5,Pin_5*%
%TO.N,unconnected-(J1-Pin_5-Pad5)*%
X119250000Y-47680000D03*
%TO.P,J1,6,Pin_6*%
%TO.N,GND*%
X116710000Y-47680000D03*
%TO.P,J1,7,Pin_7*%
%TO.N,unconnected-(J1-Pin_7-Pad7)*%
X119250000Y-50220000D03*
%TO.P,J1,8,Pin_8*%
%TO.N,unconnected-(J1-Pin_8-Pad8)*%
X116710000Y-50220000D03*
%TO.P,J1,9,Pin_9*%
%TO.N,unconnected-(J1-Pin_9-Pad9)*%
X119250000Y-52760000D03*
%TO.P,J1,10,Pin_10*%
%TO.N,unconnected-(J1-Pin_10-Pad10)*%
X116710000Y-52760000D03*
%TO.P,J1,11,Pin_11*%
%TO.N,unconnected-(J1-Pin_11-Pad11)*%
X119250000Y-55300000D03*
%TO.P,J1,12,Pin_12*%
%TO.N,Net-(J1-Pin_12)*%
X116710000Y-55300000D03*
%TO.P,J1,13,Pin_13*%
%TO.N,unconnected-(J1-Pin_13-Pad13)*%
X119250000Y-57840000D03*
%TO.P,J1,14,Pin_14*%
%TO.N,unconnected-(J1-Pin_14-Pad14)*%
X116710000Y-57840000D03*
%TO.P,J1,15,Pin_15*%
%TO.N,unconnected-(J1-Pin_15-Pad15)*%
X119250000Y-60380000D03*
%TO.P,J1,16,Pin_16*%
%TO.N,Net-(J1-Pin_16)*%
X116710000Y-60380000D03*
%TO.P,J1,17,Pin_17*%
%TO.N,unconnected-(J1-Pin_17-Pad17)*%
X119250000Y-62920000D03*
%TO.P,J1,18,Pin_18*%
%TO.N,Net-(J1-Pin_18)*%
X116710000Y-62920000D03*
%TO.P,J1,19,Pin_19*%
%TO.N,unconnected-(J1-Pin_19-Pad19)*%
X119250000Y-65460000D03*
%TO.P,J1,20,Pin_20*%
%TO.N,Net-(J1-Pin_20)*%
X116710000Y-65460000D03*
%TO.P,J1,21,Pin_21*%
%TO.N,unconnected-(J1-Pin_21-Pad21)*%
X119250000Y-68000000D03*
%TO.P,J1,22,Pin_22*%
%TO.N,unconnected-(J1-Pin_22-Pad22)*%
X116710000Y-68000000D03*
%TO.P,J1,23,Pin_23*%
%TO.N,unconnected-(J1-Pin_23-Pad23)*%
X119250000Y-70540000D03*
%TO.P,J1,24,Pin_24*%
%TO.N,unconnected-(J1-Pin_24-Pad24)*%
X116710000Y-70540000D03*
%TO.P,J1,25,Pin_25*%
%TO.N,unconnected-(J1-Pin_25-Pad25)*%
X119250000Y-73080000D03*
%TO.P,J1,26,Pin_26*%
%TO.N,unconnected-(J1-Pin_26-Pad26)*%
X116710000Y-73080000D03*
%TD*%
D12*
%TO.P,J6,1,Pin_1*%
%TO.N,Net-(J1-Pin_18)*%
X73820000Y-74740000D03*
D13*
%TO.P,J6,2,Pin_2*%
%TO.N,Net-(J1-Pin_16)*%
X73820000Y-69740000D03*
%TO.P,J6,3,Pin_3*%
%TO.N,Net-(J1-Pin_20)*%
X73820000Y-64740000D03*
%TO.P,J6,4,Pin_4*%
%TO.N,Net-(J1-Pin_2)*%
X73820000Y-59740000D03*
%TD*%
D10*
%TO.P,R1,1*%
%TO.N,Net-(J1-Pin_18)*%
X86700000Y-41680000D03*
D11*
%TO.P,R1,2*%
%TO.N,Net-(J1-Pin_2)*%
X86700000Y-56920000D03*
%TD*%
D17*
%TO.P,Q1,1,C*%
%TO.N,Net-(Q1-C)*%
X101415000Y-58470000D03*
D18*
%TO.P,Q1,2,B*%
%TO.N,Net-(Q1-B)*%
X101415000Y-61070000D03*
%TO.P,Q1,3,E*%
%TO.N,GND*%
X101415000Y-63670000D03*
%TD*%
D12*
%TO.P,J4,1,Pin_1*%
%TO.N,unconnected-(J4-Pin_1-Pad1)*%
X95770000Y-71550000D03*
D13*
%TO.P,J4,2,Pin_2*%
%TO.N,GND*%
X100770000Y-71550000D03*
%TO.P,J4,3,Pin_3*%
%TO.N,unconnected-(J4-Pin_3-Pad3)*%
X105770000Y-71550000D03*
%TD*%
D19*
%TO.N,*%
X67130000Y-77670000D03*
X124950000Y-77670000D03*
X124540000Y-40110000D03*
X67260000Y-40430000D03*
%TO.N,GND*%
X111890000Y-77220000D03*
%TD*%
D20*
%TO.N,Net-(J1-Pin_2)*%
X92290000Y-56920000D02*
X94260000Y-54950000D01*
X83380000Y-54830000D02*
X85470000Y-56920000D01*
X86700000Y-56920000D02*
X92290000Y-56920000D01*
X78730000Y-54830000D02*
X83380000Y-54830000D01*
X73820000Y-59740000D02*
X78730000Y-54830000D01*
X85470000Y-56920000D02*
X86700000Y-56920000D01*
%TO.N,GND*%
X121050000Y-77220000D02*
X111890000Y-77220000D01*
D21*
X101415000Y-70905000D02*
X100770000Y-71550000D01*
D20*
X116710000Y-47680000D02*
X114800000Y-47680000D01*
X121690000Y-39950000D02*
X124230000Y-42490000D01*
D21*
X111890000Y-77220000D02*
X111930000Y-77220000D01*
D20*
X124230000Y-74040000D02*
X121310000Y-76960000D01*
X114800000Y-47680000D02*
X112480000Y-45360000D01*
X101415000Y-63670000D02*
X101415000Y-70905000D01*
X112480000Y-45360000D02*
X112480000Y-42230000D01*
X124230000Y-42490000D02*
X124230000Y-74040000D01*
X114760000Y-39950000D02*
X121690000Y-39950000D01*
X121310000Y-76960000D02*
X121050000Y-77220000D01*
X112480000Y-42230000D02*
X114760000Y-39950000D01*
%TO.N,Net-(J1-Pin_12)*%
X113320000Y-58690000D02*
X116710000Y-55300000D01*
X96220000Y-58870000D02*
X99610000Y-55480000D01*
X99610000Y-55480000D02*
X102990000Y-55480000D01*
X102990000Y-55480000D02*
X106200000Y-58690000D01*
X96220000Y-60650000D02*
X96220000Y-58870000D01*
X106200000Y-58690000D02*
X113320000Y-58690000D01*
%TO.N,Net-(J1-Pin_16)*%
X73820000Y-69740000D02*
X78020000Y-65540000D01*
X78020000Y-59550000D02*
X80480000Y-57090000D01*
X78020000Y-65540000D02*
X78020000Y-59550000D01*
X80480000Y-57090000D02*
X82050000Y-57090000D01*
%TO.N,Net-(J1-Pin_18)*%
X84500000Y-39480000D02*
X71870000Y-39480000D01*
X71600000Y-74740000D02*
X73820000Y-74740000D01*
X112070000Y-67560000D02*
X112070000Y-71330000D01*
X116710000Y-62920000D02*
X112070000Y-67560000D01*
X112070000Y-71330000D02*
X108660000Y-74740000D01*
X67440000Y-43910000D02*
X67440000Y-70580000D01*
X86700000Y-41680000D02*
X84500000Y-39480000D01*
X67440000Y-70580000D02*
X71600000Y-74740000D01*
X108660000Y-74740000D02*
X73820000Y-74740000D01*
X71870000Y-39480000D02*
X67440000Y-43910000D01*
%TO.N,Net-(J1-Pin_20)*%
X82050000Y-41850000D02*
X81170000Y-40970000D01*
X81170000Y-40970000D02*
X72650000Y-40970000D01*
X68810000Y-59730000D02*
X73820000Y-64740000D01*
X68810000Y-44810000D02*
X68810000Y-59730000D01*
X72650000Y-40970000D02*
X68810000Y-44810000D01*
%TO.N,Net-(J3-Pin_1)*%
X104380000Y-45030000D02*
X106460000Y-42950000D01*
X75620000Y-45030000D02*
X104380000Y-45030000D01*
X73900000Y-43310000D02*
X75620000Y-45030000D01*
D21*
%TO.N,Net-(J3-Pin_2)*%
X91620000Y-48310000D02*
X92260000Y-48950000D01*
D20*
X73920000Y-48290000D02*
X91600000Y-48290000D01*
X91600000Y-48290000D02*
X91620000Y-48310000D01*
X73900000Y-48310000D02*
X73920000Y-48290000D01*
%TO.N,Net-(J3-Pin_3)*%
X103190000Y-51680000D02*
X106460000Y-54950000D01*
X75530000Y-51680000D02*
X103190000Y-51680000D01*
X73900000Y-53310000D02*
X75530000Y-51680000D01*
%TO.N,Net-(Q1-B)*%
X99125000Y-63360000D02*
X83690000Y-63360000D01*
X83690000Y-63360000D02*
X80980000Y-60650000D01*
X101415000Y-61070000D02*
X99125000Y-63360000D01*
%TD*%
M02*
