M48
; DRILL file {KiCad 7.0.7} date Wed Sep 27 10:27:34 2023
; FORMAT={-:-/ absolute / inch / decimal}
; #@! TF.CreationDate,2023-09-27T10:27:34+03:00
; #@! TF.GenerationSoftware,Kicad,Pcbnew,7.0.7
; #@! TF.FileFunction,Plated,1,2,PTH
FMAT,2
INCH
; #@! TA.AperFunction,Plated,PTH,ComponentDrill
T1C0.0315
; #@! TA.AperFunction,Plated,PTH,ComponentDrill
T2C0.0354
; #@! TA.AperFunction,Plated,PTH,ComponentDrill
T3C0.0394
; #@! TA.AperFunction,Plated,PTH,ComponentDrill
T4C0.0433
; #@! TA.AperFunction,Plated,PTH,ViaDrill
T5C0.0472
; #@! TA.AperFunction,Plated,PTH,ComponentDrill
T6C0.0512
%
G90
G05
T1
X3.1882Y-2.3878
X3.2303Y-1.6476
X3.2303Y-2.2476
X3.4134Y-1.6409
X3.4134Y-2.2409
X3.7882Y-2.3878
T2
X3.9927Y-2.302
X3.9927Y-2.4043
X3.9927Y-2.5067
T3
X4.5949Y-1.6772
X4.5949Y-1.7772
X4.5949Y-1.8772
X4.5949Y-1.9772
X4.5949Y-2.0772
X4.5949Y-2.1772
X4.5949Y-2.2772
X4.5949Y-2.3772
X4.5949Y-2.4772
X4.5949Y-2.5772
X4.5949Y-2.6772
X4.5949Y-2.7772
X4.5949Y-2.8772
X4.6949Y-1.6772
X4.6949Y-1.7772
X4.6949Y-1.8772
X4.6949Y-1.9772
X4.6949Y-2.0772
X4.6949Y-2.1772
X4.6949Y-2.2772
X4.6949Y-2.3772
X4.6949Y-2.4772
X4.6949Y-2.5772
X4.6949Y-2.6772
X4.6949Y-2.7772
X4.6949Y-2.8772
T4
X2.9063Y-2.352
X2.9063Y-2.5488
X2.9063Y-2.7457
X2.9063Y-2.9425
X2.9094Y-1.7051
X2.9094Y-1.902
X2.9094Y-2.0988
X3.7705Y-2.8169
X3.9673Y-2.8169
X4.1642Y-2.8169
T5
X2.6429Y-3.0579
X2.648Y-1.5917
X4.4051Y-3.0402
X4.9031Y-1.5791
X4.9193Y-3.0579
T6
X3.6323Y-1.9272
X3.711Y-1.6909
X3.711Y-2.1634
X4.1913Y-1.6909
X4.1913Y-2.1634
T0
M30
