%TF.GenerationSoftware,KiCad,Pcbnew,7.0.7*%
%TF.CreationDate,2023-09-27T10:27:32+03:00*%
%TF.ProjectId,Bionluk Proje,42696f6e-6c75-46b2-9050-726f6a652e6b,rev?*%
%TF.SameCoordinates,Original*%
%TF.FileFunction,Copper,L2,Bot*%
%TF.FilePolarity,Positive*%
%FSLAX46Y46*%
G04 Gerber Fmt 4.6, Leading zero omitted, Abs format (unit mm)*
G04 Created by KiCad (PCBNEW 7.0.7) date 2023-09-27 10:27:32*
%MOMM*%
%LPD*%
G01*
G04 APERTURE LIST*
%TA.AperFunction,NonConductor*%
%ADD10C,0.200000*%
%TD*%
%ADD11C,0.300000*%
%TA.AperFunction,NonConductor*%
%ADD12C,0.300000*%
%TD*%
%ADD13C,0.375000*%
%TA.AperFunction,NonConductor*%
%ADD14C,0.375000*%
%TD*%
%TA.AperFunction,ComponentPad*%
%ADD15C,1.600000*%
%TD*%
%TA.AperFunction,ComponentPad*%
%ADD16O,1.600000X1.600000*%
%TD*%
%TA.AperFunction,ComponentPad*%
%ADD17R,2.100000X2.100000*%
%TD*%
%TA.AperFunction,ComponentPad*%
%ADD18C,2.100000*%
%TD*%
%TA.AperFunction,ComponentPad*%
%ADD19C,1.950000*%
%TD*%
%TA.AperFunction,ComponentPad*%
%ADD20R,1.700000X1.700000*%
%TD*%
%TA.AperFunction,ComponentPad*%
%ADD21O,1.700000X1.700000*%
%TD*%
%TA.AperFunction,ComponentPad*%
%ADD22R,1.500000X1.500000*%
%TD*%
%TA.AperFunction,ComponentPad*%
%ADD23C,1.500000*%
%TD*%
%TA.AperFunction,ViaPad*%
%ADD24C,2.000000*%
%TD*%
%TA.AperFunction,Conductor*%
%ADD25C,0.500000*%
%TD*%
%TA.AperFunction,Conductor*%
%ADD26C,0.250000*%
%TD*%
G04 APERTURE END LIST*
D10*
X65590000Y-38570000D02*
X126340000Y-38570000D01*
X126340000Y-79050000D01*
X65590000Y-79050000D01*
X65590000Y-38570000D01*
D11*
D12*
X67340828Y-73664510D02*
X68555114Y-73664510D01*
X68555114Y-73664510D02*
X68697971Y-73735939D01*
X68697971Y-73735939D02*
X68769400Y-73807368D01*
X68769400Y-73807368D02*
X68840828Y-73950225D01*
X68840828Y-73950225D02*
X68840828Y-74235939D01*
X68840828Y-74235939D02*
X68769400Y-74378796D01*
X68769400Y-74378796D02*
X68697971Y-74450225D01*
X68697971Y-74450225D02*
X68555114Y-74521653D01*
X68555114Y-74521653D02*
X67340828Y-74521653D01*
X68840828Y-75235939D02*
X67340828Y-75235939D01*
X67340828Y-75235939D02*
X67340828Y-75807368D01*
X67340828Y-75807368D02*
X67412257Y-75950225D01*
X67412257Y-75950225D02*
X67483685Y-76021654D01*
X67483685Y-76021654D02*
X67626542Y-76093082D01*
X67626542Y-76093082D02*
X67840828Y-76093082D01*
X67840828Y-76093082D02*
X67983685Y-76021654D01*
X67983685Y-76021654D02*
X68055114Y-75950225D01*
X68055114Y-75950225D02*
X68126542Y-75807368D01*
X68126542Y-75807368D02*
X68126542Y-75235939D01*
D11*
D12*
X68415489Y-59269400D02*
X67272632Y-59269400D01*
X67844060Y-59840828D02*
X67844060Y-58697971D01*
D11*
D12*
X71560828Y-52544510D02*
X70060828Y-52544510D01*
X70060828Y-52544510D02*
X71560828Y-53401653D01*
X71560828Y-53401653D02*
X70060828Y-53401653D01*
X70060828Y-54401654D02*
X70060828Y-54687368D01*
X70060828Y-54687368D02*
X70132257Y-54830225D01*
X70132257Y-54830225D02*
X70275114Y-54973082D01*
X70275114Y-54973082D02*
X70560828Y-55044511D01*
X70560828Y-55044511D02*
X71060828Y-55044511D01*
X71060828Y-55044511D02*
X71346542Y-54973082D01*
X71346542Y-54973082D02*
X71489400Y-54830225D01*
X71489400Y-54830225D02*
X71560828Y-54687368D01*
X71560828Y-54687368D02*
X71560828Y-54401654D01*
X71560828Y-54401654D02*
X71489400Y-54258797D01*
X71489400Y-54258797D02*
X71346542Y-54115939D01*
X71346542Y-54115939D02*
X71060828Y-54044511D01*
X71060828Y-54044511D02*
X70560828Y-54044511D01*
X70560828Y-54044511D02*
X70275114Y-54115939D01*
X70275114Y-54115939D02*
X70132257Y-54258797D01*
X70132257Y-54258797D02*
X70060828Y-54401654D01*
D11*
D12*
X67969400Y-63974510D02*
X67969400Y-65117368D01*
D13*
D14*
X70123071Y-44316147D02*
X71623071Y-44316147D01*
X71623071Y-44316147D02*
X70123071Y-43459004D01*
X70123071Y-43459004D02*
X71623071Y-43459004D01*
X70265928Y-41887575D02*
X70194500Y-41959003D01*
X70194500Y-41959003D02*
X70123071Y-42173289D01*
X70123071Y-42173289D02*
X70123071Y-42316146D01*
X70123071Y-42316146D02*
X70194500Y-42530432D01*
X70194500Y-42530432D02*
X70337357Y-42673289D01*
X70337357Y-42673289D02*
X70480214Y-42744718D01*
X70480214Y-42744718D02*
X70765928Y-42816146D01*
X70765928Y-42816146D02*
X70980214Y-42816146D01*
X70980214Y-42816146D02*
X71265928Y-42744718D01*
X71265928Y-42744718D02*
X71408785Y-42673289D01*
X71408785Y-42673289D02*
X71551642Y-42530432D01*
X71551642Y-42530432D02*
X71623071Y-42316146D01*
X71623071Y-42316146D02*
X71623071Y-42173289D01*
X71623071Y-42173289D02*
X71551642Y-41959003D01*
X71551642Y-41959003D02*
X71480214Y-41887575D01*
D11*
D12*
X71527971Y-47161653D02*
X71599400Y-47090225D01*
X71599400Y-47090225D02*
X71670828Y-46875939D01*
X71670828Y-46875939D02*
X71670828Y-46733082D01*
X71670828Y-46733082D02*
X71599400Y-46518796D01*
X71599400Y-46518796D02*
X71456542Y-46375939D01*
X71456542Y-46375939D02*
X71313685Y-46304510D01*
X71313685Y-46304510D02*
X71027971Y-46233082D01*
X71027971Y-46233082D02*
X70813685Y-46233082D01*
X70813685Y-46233082D02*
X70527971Y-46304510D01*
X70527971Y-46304510D02*
X70385114Y-46375939D01*
X70385114Y-46375939D02*
X70242257Y-46518796D01*
X70242257Y-46518796D02*
X70170828Y-46733082D01*
X70170828Y-46733082D02*
X70170828Y-46875939D01*
X70170828Y-46875939D02*
X70242257Y-47090225D01*
X70242257Y-47090225D02*
X70313685Y-47161653D01*
X70170828Y-48090225D02*
X70170828Y-48375939D01*
X70170828Y-48375939D02*
X70242257Y-48518796D01*
X70242257Y-48518796D02*
X70385114Y-48661653D01*
X70385114Y-48661653D02*
X70670828Y-48733082D01*
X70670828Y-48733082D02*
X71170828Y-48733082D01*
X71170828Y-48733082D02*
X71456542Y-48661653D01*
X71456542Y-48661653D02*
X71599400Y-48518796D01*
X71599400Y-48518796D02*
X71670828Y-48375939D01*
X71670828Y-48375939D02*
X71670828Y-48090225D01*
X71670828Y-48090225D02*
X71599400Y-47947368D01*
X71599400Y-47947368D02*
X71456542Y-47804510D01*
X71456542Y-47804510D02*
X71170828Y-47733082D01*
X71170828Y-47733082D02*
X70670828Y-47733082D01*
X70670828Y-47733082D02*
X70385114Y-47804510D01*
X70385114Y-47804510D02*
X70242257Y-47947368D01*
X70242257Y-47947368D02*
X70170828Y-48090225D01*
X71670828Y-49375939D02*
X70170828Y-49375939D01*
X70170828Y-49375939D02*
X71242257Y-49875939D01*
X71242257Y-49875939D02*
X70170828Y-50375939D01*
X70170828Y-50375939D02*
X71670828Y-50375939D01*
D11*
D12*
X68620828Y-66974510D02*
X67120828Y-66974510D01*
X67120828Y-66974510D02*
X67120828Y-67331653D01*
X67120828Y-67331653D02*
X67192257Y-67545939D01*
X67192257Y-67545939D02*
X67335114Y-67688796D01*
X67335114Y-67688796D02*
X67477971Y-67760225D01*
X67477971Y-67760225D02*
X67763685Y-67831653D01*
X67763685Y-67831653D02*
X67977971Y-67831653D01*
X67977971Y-67831653D02*
X68263685Y-67760225D01*
X68263685Y-67760225D02*
X68406542Y-67688796D01*
X68406542Y-67688796D02*
X68549400Y-67545939D01*
X68549400Y-67545939D02*
X68620828Y-67331653D01*
X68620828Y-67331653D02*
X68620828Y-66974510D01*
X67120828Y-68760225D02*
X67120828Y-69045939D01*
X67120828Y-69045939D02*
X67192257Y-69188796D01*
X67192257Y-69188796D02*
X67335114Y-69331653D01*
X67335114Y-69331653D02*
X67620828Y-69403082D01*
X67620828Y-69403082D02*
X68120828Y-69403082D01*
X68120828Y-69403082D02*
X68406542Y-69331653D01*
X68406542Y-69331653D02*
X68549400Y-69188796D01*
X68549400Y-69188796D02*
X68620828Y-69045939D01*
X68620828Y-69045939D02*
X68620828Y-68760225D01*
X68620828Y-68760225D02*
X68549400Y-68617368D01*
X68549400Y-68617368D02*
X68406542Y-68474510D01*
X68406542Y-68474510D02*
X68120828Y-68403082D01*
X68120828Y-68403082D02*
X67620828Y-68403082D01*
X67620828Y-68403082D02*
X67335114Y-68474510D01*
X67335114Y-68474510D02*
X67192257Y-68617368D01*
X67192257Y-68617368D02*
X67120828Y-68760225D01*
X67120828Y-69903082D02*
X68620828Y-70260225D01*
X68620828Y-70260225D02*
X67549400Y-70545939D01*
X67549400Y-70545939D02*
X68620828Y-70831654D01*
X68620828Y-70831654D02*
X67120828Y-71188797D01*
X68620828Y-71760225D02*
X67120828Y-71760225D01*
X67120828Y-71760225D02*
X68620828Y-72617368D01*
X68620828Y-72617368D02*
X67120828Y-72617368D01*
D15*
%TO.P,R2,1*%
%TO.N,Net-(J1-Pin_16)*%
X82050000Y-57090000D03*
D16*
%TO.P,R2,2*%
%TO.N,Net-(J1-Pin_20)*%
X82050000Y-41850000D03*
%TD*%
D15*
%TO.P,R3,1*%
%TO.N,Net-(J1-Pin_12)*%
X96220000Y-60650000D03*
D16*
%TO.P,R3,2*%
%TO.N,Net-(Q1-B)*%
X80980000Y-60650000D03*
%TD*%
D17*
%TO.P,J3,1,Pin_1*%
%TO.N,Net-(J3-Pin_1)*%
X73900000Y-43310000D03*
D18*
%TO.P,J3,2,Pin_2*%
%TO.N,Net-(J3-Pin_2)*%
X73900000Y-48310000D03*
%TO.P,J3,3,Pin_3*%
%TO.N,Net-(J3-Pin_3)*%
X73900000Y-53310000D03*
%TD*%
D19*
%TO.P,K1,COIL1*%
%TO.N,Net-(Q1-C)*%
X94260000Y-42950000D03*
%TO.P,K1,COIL2*%
%TO.N,Net-(J1-Pin_2)*%
X94260000Y-54950000D03*
%TO.P,K1,COM*%
%TO.N,Net-(J3-Pin_2)*%
X92260000Y-48950000D03*
%TO.P,K1,NC*%
%TO.N,Net-(J3-Pin_1)*%
X106460000Y-42950000D03*
%TO.P,K1,NO*%
%TO.N,Net-(J3-Pin_3)*%
X106460000Y-54950000D03*
%TD*%
D20*
%TO.P,J1,1,Pin_1*%
%TO.N,unconnected-(J1-Pin_1-Pad1)*%
X119250000Y-42600000D03*
D21*
%TO.P,J1,2,Pin_2*%
%TO.N,Net-(J1-Pin_2)*%
X116710000Y-42600000D03*
%TO.P,J1,3,Pin_3*%
%TO.N,unconnected-(J1-Pin_3-Pad3)*%
X119250000Y-45140000D03*
%TO.P,J1,4,Pin_4*%
%TO.N,unconnected-(J1-Pin_4-Pad4)*%
X116710000Y-45140000D03*
%TO.P,J1,5,Pin_5*%
%TO.N,unconnected-(J1-Pin_5-Pad5)*%
X119250000Y-47680000D03*
%TO.P,J1,6,Pin_6*%
%TO.N,GND*%
X116710000Y-47680000D03*
%TO.P,J1,7,Pin_7*%
%TO.N,unconnected-(J1-Pin_7-Pad7)*%
X119250000Y-50220000D03*
%TO.P,J1,8,Pin_8*%
%TO.N,unconnected-(J1-Pin_8-Pad8)*%
X116710000Y-50220000D03*
%TO.P,J1,9,Pin_9*%
%TO.N,unconnected-(J1-Pin_9-Pad9)*%
X119250000Y-52760000D03*
%TO.P,J1,10,Pin_10*%
%TO.N,unconnected-(J1-Pin_10-Pad10)*%
X116710000Y-52760000D03*
%TO.P,J1,11,Pin_11*%
%TO.N,unconnected-(J1-Pin_11-Pad11)*%
X119250000Y-55300000D03*
%TO.P,J1,12,Pin_12*%
%TO.N,Net-(J1-Pin_12)*%
X116710000Y-55300000D03*
%TO.P,J1,13,Pin_13*%
%TO.N,unconnected-(J1-Pin_13-Pad13)*%
X119250000Y-57840000D03*
%TO.P,J1,14,Pin_14*%
%TO.N,unconnected-(J1-Pin_14-Pad14)*%
X116710000Y-57840000D03*
%TO.P,J1,15,Pin_15*%
%TO.N,unconnected-(J1-Pin_15-Pad15)*%
X119250000Y-60380000D03*
%TO.P,J1,16,Pin_16*%
%TO.N,Net-(J1-Pin_16)*%
X116710000Y-60380000D03*
%TO.P,J1,17,Pin_17*%
%TO.N,unconnected-(J1-Pin_17-Pad17)*%
X119250000Y-62920000D03*
%TO.P,J1,18,Pin_18*%
%TO.N,Net-(J1-Pin_18)*%
X116710000Y-62920000D03*
%TO.P,J1,19,Pin_19*%
%TO.N,unconnected-(J1-Pin_19-Pad19)*%
X119250000Y-65460000D03*
%TO.P,J1,20,Pin_20*%
%TO.N,Net-(J1-Pin_20)*%
X116710000Y-65460000D03*
%TO.P,J1,21,Pin_21*%
%TO.N,unconnected-(J1-Pin_21-Pad21)*%
X119250000Y-68000000D03*
%TO.P,J1,22,Pin_22*%
%TO.N,unconnected-(J1-Pin_22-Pad22)*%
X116710000Y-68000000D03*
%TO.P,J1,23,Pin_23*%
%TO.N,unconnected-(J1-Pin_23-Pad23)*%
X119250000Y-70540000D03*
%TO.P,J1,24,Pin_24*%
%TO.N,unconnected-(J1-Pin_24-Pad24)*%
X116710000Y-70540000D03*
%TO.P,J1,25,Pin_25*%
%TO.N,unconnected-(J1-Pin_25-Pad25)*%
X119250000Y-73080000D03*
%TO.P,J1,26,Pin_26*%
%TO.N,unconnected-(J1-Pin_26-Pad26)*%
X116710000Y-73080000D03*
%TD*%
D17*
%TO.P,J6,1,Pin_1*%
%TO.N,Net-(J1-Pin_18)*%
X73820000Y-74740000D03*
D18*
%TO.P,J6,2,Pin_2*%
%TO.N,Net-(J1-Pin_16)*%
X73820000Y-69740000D03*
%TO.P,J6,3,Pin_3*%
%TO.N,Net-(J1-Pin_20)*%
X73820000Y-64740000D03*
%TO.P,J6,4,Pin_4*%
%TO.N,Net-(J1-Pin_2)*%
X73820000Y-59740000D03*
%TD*%
D15*
%TO.P,R1,1*%
%TO.N,Net-(J1-Pin_18)*%
X86700000Y-41680000D03*
D16*
%TO.P,R1,2*%
%TO.N,Net-(J1-Pin_2)*%
X86700000Y-56920000D03*
%TD*%
D22*
%TO.P,Q1,1,C*%
%TO.N,Net-(Q1-C)*%
X101415000Y-58470000D03*
D23*
%TO.P,Q1,2,B*%
%TO.N,Net-(Q1-B)*%
X101415000Y-61070000D03*
%TO.P,Q1,3,E*%
%TO.N,GND*%
X101415000Y-63670000D03*
%TD*%
D17*
%TO.P,J4,1,Pin_1*%
%TO.N,unconnected-(J4-Pin_1-Pad1)*%
X95770000Y-71550000D03*
D18*
%TO.P,J4,2,Pin_2*%
%TO.N,GND*%
X100770000Y-71550000D03*
%TO.P,J4,3,Pin_3*%
%TO.N,unconnected-(J4-Pin_3-Pad3)*%
X105770000Y-71550000D03*
%TD*%
D24*
%TO.N,*%
X67130000Y-77670000D03*
X124950000Y-77670000D03*
X124540000Y-40110000D03*
X67260000Y-40430000D03*
%TO.N,GND*%
X111890000Y-77220000D03*
%TD*%
D25*
%TO.N,Net-(J1-Pin_2)*%
X112590000Y-46720000D02*
X116710000Y-42600000D01*
X94260000Y-54950000D02*
X102490000Y-46720000D01*
X102490000Y-46720000D02*
X112590000Y-46720000D01*
%TO.N,GND*%
X106440000Y-77220000D02*
X100770000Y-71550000D01*
X111890000Y-77220000D02*
X106440000Y-77220000D01*
%TO.N,Net-(J1-Pin_16)*%
X84450000Y-59490000D02*
X82050000Y-57090000D01*
X92800000Y-59490000D02*
X84450000Y-59490000D01*
X94895000Y-57395000D02*
X92800000Y-59490000D01*
X116710000Y-60380000D02*
X113725000Y-57395000D01*
X113725000Y-57395000D02*
X94895000Y-57395000D01*
%TO.N,Net-(J1-Pin_20)*%
X79200000Y-44700000D02*
X79200000Y-52200000D01*
X79200000Y-52200000D02*
X78190000Y-53210000D01*
X81480000Y-65460000D02*
X116710000Y-65460000D01*
X78190000Y-62170000D02*
X81480000Y-65460000D01*
X78190000Y-53210000D02*
X78190000Y-62170000D01*
X82050000Y-41850000D02*
X79200000Y-44700000D01*
D26*
%TO.N,Net-(Q1-C)*%
X101415000Y-58695000D02*
X101415000Y-58470000D01*
D25*
X93580000Y-42950000D02*
X90870000Y-42950000D01*
D26*
X97580000Y-62550000D02*
X97580000Y-62530000D01*
D25*
X80220000Y-57920000D02*
X84850000Y-62550000D01*
X90870000Y-42950000D02*
X80220000Y-53600000D01*
X84850000Y-62550000D02*
X97580000Y-62550000D01*
D26*
X94260000Y-42950000D02*
X93580000Y-42950000D01*
D25*
X97580000Y-62530000D02*
X101415000Y-58695000D01*
X80220000Y-53600000D02*
X80220000Y-57920000D01*
%TD*%
%TA.AperFunction,Conductor*%
%TO.N,GND*%
G36*
X79489225Y-53074655D02*
G01*
X79545158Y-53116527D01*
X79569575Y-53181991D01*
X79558273Y-53243242D01*
X79544424Y-53272941D01*
X79509960Y-53341566D01*
X79507488Y-53348357D01*
X79507432Y-53348336D01*
X79504960Y-53355450D01*
X79505015Y-53355469D01*
X79502742Y-53362327D01*
X79494974Y-53399945D01*
X79487207Y-53437565D01*
X79474001Y-53493284D01*
X79469498Y-53512286D01*
X79468661Y-53519454D01*
X79468601Y-53519447D01*
X79467835Y-53526945D01*
X79467895Y-53526951D01*
X79467265Y-53534140D01*
X79469500Y-53610916D01*
X79469500Y-57856294D01*
X79468191Y-57874263D01*
X79464710Y-57898025D01*
X79469264Y-57950064D01*
X79469500Y-57955470D01*
X79469500Y-57963709D01*
X79473306Y-57996274D01*
X79480000Y-58072791D01*
X79481461Y-58079867D01*
X79481403Y-58079878D01*
X79483034Y-58087237D01*
X79483092Y-58087224D01*
X79484757Y-58094250D01*
X79511025Y-58166424D01*
X79535185Y-58239331D01*
X79538236Y-58245874D01*
X79538182Y-58245898D01*
X79541470Y-58252688D01*
X79541521Y-58252663D01*
X79544761Y-58259113D01*
X79544762Y-58259114D01*
X79544763Y-58259117D01*
X79545890Y-58260830D01*
X79586965Y-58323283D01*
X79627287Y-58388655D01*
X79631766Y-58394319D01*
X79631719Y-58394356D01*
X79636482Y-58400202D01*
X79636528Y-58400164D01*
X79641173Y-58405700D01*
X79697017Y-58458385D01*
X80495841Y-59257210D01*
X80529326Y-59318533D01*
X80524342Y-59388225D01*
X80482470Y-59444158D01*
X80460565Y-59457273D01*
X80327267Y-59519431D01*
X80327265Y-59519432D01*
X80140858Y-59649954D01*
X79979954Y-59810858D01*
X79849432Y-59997265D01*
X79849431Y-59997267D01*
X79753261Y-60203502D01*
X79753258Y-60203511D01*
X79694366Y-60423302D01*
X79694364Y-60423313D01*
X79674532Y-60649998D01*
X79674532Y-60650001D01*
X79694364Y-60876686D01*
X79694366Y-60876697D01*
X79753258Y-61096488D01*
X79753261Y-61096497D01*
X79849431Y-61302732D01*
X79849432Y-61302734D01*
X79979954Y-61489141D01*
X80140858Y-61650045D01*
X80140861Y-61650047D01*
X80327266Y-61780568D01*
X80533504Y-61876739D01*
X80533509Y-61876740D01*
X80533511Y-61876741D01*
X80586415Y-61890916D01*
X80753308Y-61935635D01*
X80915230Y-61949801D01*
X80979998Y-61955468D01*
X80980000Y-61955468D01*
X80980002Y-61955468D01*
X81036673Y-61950509D01*
X81206692Y-61935635D01*
X81426496Y-61876739D01*
X81632734Y-61780568D01*
X81819139Y-61650047D01*
X81980047Y-61489139D01*
X82110568Y-61302734D01*
X82172727Y-61169433D01*
X82218900Y-61116995D01*
X82286093Y-61097843D01*
X82352974Y-61118059D01*
X82372790Y-61134158D01*
X84274270Y-63035638D01*
X84286051Y-63049270D01*
X84300388Y-63068528D01*
X84340409Y-63102111D01*
X84344397Y-63105766D01*
X84350216Y-63111585D01*
X84350220Y-63111588D01*
X84350223Y-63111591D01*
X84375959Y-63131940D01*
X84434786Y-63181302D01*
X84434787Y-63181302D01*
X84434789Y-63181304D01*
X84440818Y-63185270D01*
X84440785Y-63185319D01*
X84447147Y-63189372D01*
X84447179Y-63189321D01*
X84453319Y-63193108D01*
X84453323Y-63193111D01*
X84488132Y-63209343D01*
X84522941Y-63225575D01*
X84591455Y-63259984D01*
X84591567Y-63260040D01*
X84591569Y-63260040D01*
X84598357Y-63262511D01*
X84598336Y-63262567D01*
X84605457Y-63265043D01*
X84605476Y-63264986D01*
X84612322Y-63267254D01*
X84612327Y-63267257D01*
X84612332Y-63267258D01*
X84612335Y-63267259D01*
X84680518Y-63281337D01*
X84687565Y-63282792D01*
X84762279Y-63300500D01*
X84762282Y-63300500D01*
X84762286Y-63300501D01*
X84769453Y-63301339D01*
X84769446Y-63301398D01*
X84776944Y-63302164D01*
X84776950Y-63302105D01*
X84784139Y-63302734D01*
X84784143Y-63302733D01*
X84784144Y-63302734D01*
X84860917Y-63300500D01*
X97623709Y-63300500D01*
X97754255Y-63285241D01*
X97919117Y-63225237D01*
X98060159Y-63132471D01*
X98065693Y-63128832D01*
X98065694Y-63128831D01*
X98065693Y-63128831D01*
X98065696Y-63128830D01*
X98186092Y-63001218D01*
X98199707Y-62977634D01*
X98219408Y-62951958D01*
X99966997Y-61204369D01*
X100028318Y-61170886D01*
X100098010Y-61175870D01*
X100153943Y-61217742D01*
X100178204Y-61281243D01*
X100178793Y-61287976D01*
X100178793Y-61287979D01*
X100235422Y-61499322D01*
X100235424Y-61499326D01*
X100235425Y-61499330D01*
X100266115Y-61565145D01*
X100327897Y-61697638D01*
X100327898Y-61697639D01*
X100453402Y-61876877D01*
X100608123Y-62031598D01*
X100787361Y-62157102D01*
X100985670Y-62249575D01*
X100985674Y-62249576D01*
X100989062Y-62250484D01*
X100990387Y-62251291D01*
X100990764Y-62251429D01*
X100990736Y-62251504D01*
X101048722Y-62286849D01*
X101079251Y-62349696D01*
X101070956Y-62419072D01*
X101026471Y-62472950D01*
X100989063Y-62490033D01*
X100985855Y-62490892D01*
X100985840Y-62490898D01*
X100787614Y-62583332D01*
X100787612Y-62583333D01*
X100725428Y-62626875D01*
X100725427Y-62626875D01*
X101192942Y-63094389D01*
X101226427Y-63155712D01*
X101221443Y-63225403D01*
X101179572Y-63281337D01*
X101159073Y-63293785D01*
X101158646Y-63293990D01*
X101158645Y-63293990D01*
X101059202Y-63386260D01*
X101059199Y-63386264D01*
X101036967Y-63424771D01*
X100986400Y-63472987D01*
X100917793Y-63486209D01*
X100852928Y-63460241D01*
X100841899Y-63450452D01*
X100371875Y-62980427D01*
X100371875Y-62980428D01*
X100328333Y-63042612D01*
X100328332Y-63042614D01*
X100235898Y-63240840D01*
X100235894Y-63240849D01*
X100179289Y-63452105D01*
X100179287Y-63452115D01*
X100160225Y-63669999D01*
X100160225Y-63670000D01*
X100179287Y-63887884D01*
X100179289Y-63887894D01*
X100235894Y-64099150D01*
X100235898Y-64099159D01*
X100328335Y-64297391D01*
X100371873Y-64359571D01*
X100371874Y-64359572D01*
X100839814Y-63891631D01*
X100901137Y-63858146D01*
X100970828Y-63863130D01*
X101024443Y-63902000D01*
X101105464Y-64003599D01*
X101105466Y-64003600D01*
X101177723Y-64052865D01*
X101222025Y-64106894D01*
X101230083Y-64176297D01*
X101199340Y-64239040D01*
X101195552Y-64242999D01*
X100765372Y-64673181D01*
X100704049Y-64706666D01*
X100677691Y-64709500D01*
X81842229Y-64709500D01*
X81775190Y-64689815D01*
X81754548Y-64673181D01*
X78976819Y-61895451D01*
X78943334Y-61834128D01*
X78940500Y-61807770D01*
X78940500Y-53572228D01*
X78960185Y-53505189D01*
X78976814Y-53484552D01*
X79358212Y-53103154D01*
X79419533Y-53069671D01*
X79489225Y-53074655D01*
G37*
%TD.AperFunction*%
%TA.AperFunction,Conductor*%
G36*
X113429809Y-58165185D02*
G01*
X113450451Y-58181819D01*
X115337130Y-60068497D01*
X115370615Y-60129820D01*
X115372977Y-60166985D01*
X115354341Y-60379997D01*
X115354341Y-60380000D01*
X115374936Y-60615403D01*
X115374938Y-60615413D01*
X115436094Y-60843655D01*
X115436096Y-60843659D01*
X115436097Y-60843663D01*
X115508188Y-60998262D01*
X115535965Y-61057830D01*
X115535967Y-61057834D01*
X115638574Y-61204371D01*
X115671501Y-61251396D01*
X115671506Y-61251402D01*
X115838597Y-61418493D01*
X115838603Y-61418498D01*
X116024158Y-61548425D01*
X116067783Y-61603002D01*
X116074977Y-61672500D01*
X116043454Y-61734855D01*
X116024158Y-61751575D01*
X115838597Y-61881505D01*
X115671505Y-62048597D01*
X115535965Y-62242169D01*
X115535964Y-62242171D01*
X115436098Y-62456335D01*
X115436094Y-62456344D01*
X115374938Y-62684586D01*
X115374936Y-62684596D01*
X115354341Y-62919999D01*
X115354341Y-62920000D01*
X115374936Y-63155403D01*
X115374938Y-63155413D01*
X115436094Y-63383655D01*
X115436096Y-63383659D01*
X115436097Y-63383663D01*
X115483915Y-63486209D01*
X115535965Y-63597830D01*
X115535967Y-63597834D01*
X115644281Y-63752521D01*
X115671504Y-63791400D01*
X115671506Y-63791402D01*
X115838597Y-63958493D01*
X115838603Y-63958498D01*
X116024158Y-64088425D01*
X116067783Y-64143002D01*
X116074977Y-64212500D01*
X116043454Y-64274855D01*
X116024158Y-64291575D01*
X115838597Y-64421505D01*
X115671506Y-64588596D01*
X115623874Y-64656623D01*
X115569297Y-64700248D01*
X115522299Y-64709500D01*
X102152309Y-64709500D01*
X102085270Y-64689815D01*
X102064628Y-64673181D01*
X101637057Y-64245610D01*
X101603572Y-64184287D01*
X101608556Y-64114595D01*
X101650428Y-64058662D01*
X101670930Y-64046212D01*
X101671357Y-64046007D01*
X101770798Y-63953740D01*
X101793032Y-63915228D01*
X101843597Y-63867014D01*
X101912204Y-63853790D01*
X101977069Y-63879757D01*
X101988100Y-63889548D01*
X102458124Y-64359572D01*
X102501666Y-64297387D01*
X102594101Y-64099159D01*
X102594105Y-64099150D01*
X102650710Y-63887894D01*
X102650712Y-63887884D01*
X102669775Y-63670000D01*
X102669775Y-63669999D01*
X102650712Y-63452115D01*
X102650710Y-63452105D01*
X102594105Y-63240849D01*
X102594101Y-63240840D01*
X102501668Y-63042615D01*
X102458123Y-62980427D01*
X101990184Y-63448367D01*
X101928861Y-63481852D01*
X101859169Y-63476868D01*
X101805555Y-63437998D01*
X101724535Y-63336400D01*
X101724533Y-63336399D01*
X101652275Y-63287134D01*
X101607973Y-63233106D01*
X101599915Y-63163702D01*
X101630657Y-63100959D01*
X101634446Y-63097000D01*
X102104572Y-62626874D01*
X102104571Y-62626873D01*
X102042391Y-62583335D01*
X101844159Y-62490898D01*
X101844145Y-62490892D01*
X101840940Y-62490034D01*
X101839684Y-62489269D01*
X101839064Y-62489043D01*
X101839109Y-62488918D01*
X101781279Y-62453671D01*
X101750748Y-62390824D01*
X101759042Y-62321449D01*
X101803526Y-62267570D01*
X101840941Y-62250483D01*
X101844330Y-62249575D01*
X102042639Y-62157102D01*
X102221877Y-62031598D01*
X102376598Y-61876877D01*
X102502102Y-61697639D01*
X102594575Y-61499330D01*
X102651207Y-61287977D01*
X102670277Y-61070000D01*
X102651207Y-60852023D01*
X102597075Y-60650000D01*
X102594577Y-60640677D01*
X102594576Y-60640676D01*
X102594575Y-60640670D01*
X102502102Y-60442362D01*
X102502100Y-60442359D01*
X102502099Y-60442357D01*
X102376599Y-60263124D01*
X102312449Y-60198974D01*
X102221877Y-60108402D01*
X102063157Y-59997265D01*
X102042638Y-59982897D01*
X101986845Y-59956881D01*
X101934406Y-59910709D01*
X101915254Y-59843515D01*
X101935470Y-59776634D01*
X101988635Y-59731299D01*
X102039250Y-59720499D01*
X102212871Y-59720499D01*
X102212872Y-59720499D01*
X102272483Y-59714091D01*
X102407331Y-59663796D01*
X102522546Y-59577546D01*
X102608796Y-59462331D01*
X102659091Y-59327483D01*
X102665500Y-59267873D01*
X102665499Y-58269499D01*
X102685183Y-58202461D01*
X102737987Y-58156706D01*
X102789499Y-58145500D01*
X113362770Y-58145500D01*
X113429809Y-58165185D01*
G37*
%TD.AperFunction*%
%TA.AperFunction,Conductor*%
G36*
X122988366Y-39496440D02*
G01*
X123055375Y-39516215D01*
X123101058Y-39569081D01*
X123110908Y-39638253D01*
X123108400Y-39650879D01*
X123054892Y-39862175D01*
X123054890Y-39862187D01*
X123034357Y-40109994D01*
X123034357Y-40110005D01*
X123054890Y-40357812D01*
X123054892Y-40357824D01*
X123115936Y-40598881D01*
X123215826Y-40826606D01*
X123351833Y-41034782D01*
X123351836Y-41034785D01*
X123520256Y-41217738D01*
X123716491Y-41370474D01*
X123935190Y-41488828D01*
X124170386Y-41569571D01*
X124415665Y-41610500D01*
X124664335Y-41610500D01*
X124909614Y-41569571D01*
X125144810Y-41488828D01*
X125363509Y-41370474D01*
X125401375Y-41341001D01*
X125466364Y-41315359D01*
X125534904Y-41328924D01*
X125585230Y-41377392D01*
X125601534Y-41439396D01*
X125450316Y-76086373D01*
X125430339Y-76153326D01*
X125377336Y-76198850D01*
X125308134Y-76208492D01*
X125305908Y-76208141D01*
X125074335Y-76169500D01*
X124825665Y-76169500D01*
X124580383Y-76210429D01*
X124345197Y-76291169D01*
X124345188Y-76291172D01*
X124126493Y-76409524D01*
X123930257Y-76562261D01*
X123761833Y-76745217D01*
X123625826Y-76953393D01*
X123525936Y-77181118D01*
X123464892Y-77422175D01*
X123464890Y-77422187D01*
X123444357Y-77669994D01*
X123444357Y-77670005D01*
X123464890Y-77917812D01*
X123464892Y-77917824D01*
X123525936Y-78158881D01*
X123577174Y-78275690D01*
X123586077Y-78344990D01*
X123556100Y-78408102D01*
X123496761Y-78444989D01*
X123463618Y-78449500D01*
X68616382Y-78449500D01*
X68549343Y-78429815D01*
X68503588Y-78377011D01*
X68493644Y-78307853D01*
X68502826Y-78275690D01*
X68554063Y-78158881D01*
X68615107Y-77917824D01*
X68615108Y-77917821D01*
X68635643Y-77670000D01*
X68615108Y-77422179D01*
X68554063Y-77181119D01*
X68454173Y-76953393D01*
X68445694Y-76940415D01*
X68425507Y-76873527D01*
X68444686Y-76806342D01*
X68497144Y-76760191D01*
X68549503Y-76748594D01*
X69496619Y-76748594D01*
X69496619Y-75837870D01*
X72269500Y-75837870D01*
X72269501Y-75837876D01*
X72275908Y-75897483D01*
X72326202Y-76032328D01*
X72326206Y-76032335D01*
X72412452Y-76147544D01*
X72412455Y-76147547D01*
X72527664Y-76233793D01*
X72527671Y-76233797D01*
X72662517Y-76284091D01*
X72662516Y-76284091D01*
X72669444Y-76284835D01*
X72722127Y-76290500D01*
X74917872Y-76290499D01*
X74977483Y-76284091D01*
X75112331Y-76233796D01*
X75227546Y-76147546D01*
X75313796Y-76032331D01*
X75364091Y-75897483D01*
X75370500Y-75837873D01*
X75370499Y-73642128D01*
X75364091Y-73582517D01*
X75349599Y-73543663D01*
X75313797Y-73447671D01*
X75313793Y-73447664D01*
X75227547Y-73332455D01*
X75227544Y-73332452D01*
X75112335Y-73246206D01*
X75112328Y-73246202D01*
X74977482Y-73195908D01*
X74977483Y-73195908D01*
X74917883Y-73189501D01*
X74917881Y-73189500D01*
X74917873Y-73189500D01*
X74917864Y-73189500D01*
X72722129Y-73189500D01*
X72722123Y-73189501D01*
X72662516Y-73195908D01*
X72527671Y-73246202D01*
X72527664Y-73246206D01*
X72412455Y-73332452D01*
X72412452Y-73332455D01*
X72326206Y-73447664D01*
X72326202Y-73447671D01*
X72275908Y-73582517D01*
X72269501Y-73642116D01*
X72269501Y-73642123D01*
X72269500Y-73642135D01*
X72269500Y-75837870D01*
X69496619Y-75837870D01*
X69496619Y-73008998D01*
X69400619Y-73008998D01*
X69333580Y-72989313D01*
X69287825Y-72936509D01*
X69276619Y-72884998D01*
X69276619Y-72647870D01*
X94219500Y-72647870D01*
X94219501Y-72647876D01*
X94225908Y-72707483D01*
X94276202Y-72842328D01*
X94276206Y-72842335D01*
X94362452Y-72957544D01*
X94362455Y-72957547D01*
X94477664Y-73043793D01*
X94477671Y-73043797D01*
X94612517Y-73094091D01*
X94612516Y-73094091D01*
X94619444Y-73094835D01*
X94672127Y-73100500D01*
X96867872Y-73100499D01*
X96927483Y-73094091D01*
X97062331Y-73043796D01*
X97177546Y-72957546D01*
X97263796Y-72842331D01*
X97314091Y-72707483D01*
X97320500Y-72647873D01*
X97320499Y-71549999D01*
X99215207Y-71549999D01*
X99234348Y-71793219D01*
X99291303Y-72030457D01*
X99384668Y-72255861D01*
X99508504Y-72457942D01*
X100121482Y-71844964D01*
X100182805Y-71811479D01*
X100252496Y-71816463D01*
X100308430Y-71858334D01*
X100311514Y-71863249D01*
X100311549Y-71863225D01*
X100316441Y-71870156D01*
X100419637Y-71980651D01*
X100419638Y-71980652D01*
X100454698Y-72001973D01*
X100501749Y-72053623D01*
X100513407Y-72122513D01*
X100485970Y-72186770D01*
X100477950Y-72195601D01*
X99862056Y-72811494D01*
X100064138Y-72935331D01*
X100289542Y-73028696D01*
X100526780Y-73085651D01*
X100526779Y-73085651D01*
X100769999Y-73104792D01*
X101013219Y-73085651D01*
X101250457Y-73028696D01*
X101475861Y-72935331D01*
X101677942Y-72811494D01*
X101063166Y-72196718D01*
X101029681Y-72135395D01*
X101034665Y-72065703D01*
X101072588Y-72012853D01*
X101175739Y-71928934D01*
X101226052Y-71857655D01*
X101280793Y-71814239D01*
X101350318Y-71807310D01*
X101412553Y-71839068D01*
X101415037Y-71841484D01*
X102031494Y-72457942D01*
X102155331Y-72255861D01*
X102248696Y-72030457D01*
X102305651Y-71793219D01*
X102324792Y-71550000D01*
X104214706Y-71550000D01*
X104233853Y-71793297D01*
X104233853Y-71793300D01*
X104233854Y-71793302D01*
X104289324Y-72024349D01*
X104290830Y-72030619D01*
X104384222Y-72256089D01*
X104511737Y-72464173D01*
X104511738Y-72464176D01*
X104511741Y-72464179D01*
X104670241Y-72649759D01*
X104813897Y-72772453D01*
X104855823Y-72808261D01*
X104855826Y-72808262D01*
X105063910Y-72935777D01*
X105289381Y-73029169D01*
X105289378Y-73029169D01*
X105289384Y-73029170D01*
X105289388Y-73029172D01*
X105526698Y-73086146D01*
X105770000Y-73105294D01*
X106013302Y-73086146D01*
X106250612Y-73029172D01*
X106476089Y-72935777D01*
X106684179Y-72808259D01*
X106869759Y-72649759D01*
X107028259Y-72464179D01*
X107155777Y-72256089D01*
X107249172Y-72030612D01*
X107306146Y-71793302D01*
X107325294Y-71550000D01*
X107306146Y-71306698D01*
X107249172Y-71069388D01*
X107249169Y-71069380D01*
X107155777Y-70843910D01*
X107028262Y-70635826D01*
X107028261Y-70635823D01*
X106946419Y-70539999D01*
X106869759Y-70450241D01*
X106747063Y-70345449D01*
X106684176Y-70291738D01*
X106684173Y-70291737D01*
X106476089Y-70164222D01*
X106250618Y-70070830D01*
X106250621Y-70070830D01*
X106144992Y-70045470D01*
X106013302Y-70013854D01*
X106013300Y-70013853D01*
X106013297Y-70013853D01*
X105770000Y-69994706D01*
X105526702Y-70013853D01*
X105526697Y-70013854D01*
X105526698Y-70013854D01*
X105350301Y-70056204D01*
X105289380Y-70070830D01*
X105063910Y-70164222D01*
X104855826Y-70291737D01*
X104855823Y-70291738D01*
X104670241Y-70450241D01*
X104511738Y-70635823D01*
X104511737Y-70635826D01*
X104384222Y-70843910D01*
X104290830Y-71069380D01*
X104290828Y-71069387D01*
X104290828Y-71069388D01*
X104277290Y-71125777D01*
X104233853Y-71306702D01*
X104214706Y-71550000D01*
X102324792Y-71550000D01*
X102324792Y-71549999D01*
X102305651Y-71306780D01*
X102248696Y-71069542D01*
X102155331Y-70844138D01*
X102031494Y-70642056D01*
X101418517Y-71255034D01*
X101357194Y-71288519D01*
X101287502Y-71283535D01*
X101231569Y-71241663D01*
X101228486Y-71236750D01*
X101228451Y-71236775D01*
X101223558Y-71229843D01*
X101168661Y-71171064D01*
X101120362Y-71119348D01*
X101085300Y-71098026D01*
X101038248Y-71046374D01*
X101026591Y-70977484D01*
X101054029Y-70913227D01*
X101062048Y-70904397D01*
X101677942Y-70288504D01*
X101475861Y-70164668D01*
X101250457Y-70071303D01*
X101013219Y-70014348D01*
X101013220Y-70014348D01*
X100769999Y-69995207D01*
X100526780Y-70014348D01*
X100289542Y-70071303D01*
X100064146Y-70164665D01*
X100064141Y-70164668D01*
X99862056Y-70288504D01*
X100476833Y-70903280D01*
X100510318Y-70964603D01*
X100505334Y-71034294D01*
X100467408Y-71087148D01*
X100364262Y-71171064D01*
X100364258Y-71171069D01*
X100313947Y-71242343D01*
X100259204Y-71285760D01*
X100189679Y-71292689D01*
X100127444Y-71260930D01*
X100124962Y-71258515D01*
X99508504Y-70642056D01*
X99384668Y-70844141D01*
X99384665Y-70844146D01*
X99291303Y-71069542D01*
X99234348Y-71306780D01*
X99215207Y-71549999D01*
X97320499Y-71549999D01*
X97320499Y-70452128D01*
X97314091Y-70392517D01*
X97263796Y-70257669D01*
X97263795Y-70257668D01*
X97263793Y-70257664D01*
X97177547Y-70142455D01*
X97177544Y-70142452D01*
X97062335Y-70056206D01*
X97062328Y-70056202D01*
X96927482Y-70005908D01*
X96927483Y-70005908D01*
X96867883Y-69999501D01*
X96867881Y-69999500D01*
X96867873Y-69999500D01*
X96867864Y-69999500D01*
X94672129Y-69999500D01*
X94672123Y-69999501D01*
X94612516Y-70005908D01*
X94477671Y-70056202D01*
X94477664Y-70056206D01*
X94362455Y-70142452D01*
X94362452Y-70142455D01*
X94276206Y-70257664D01*
X94276202Y-70257671D01*
X94225908Y-70392517D01*
X94220149Y-70446089D01*
X94219501Y-70452123D01*
X94219500Y-70452135D01*
X94219500Y-72647870D01*
X69276619Y-72647870D01*
X69276619Y-69740000D01*
X72264706Y-69740000D01*
X72283853Y-69983297D01*
X72283853Y-69983300D01*
X72283854Y-69983302D01*
X72304867Y-70070828D01*
X72340830Y-70220619D01*
X72434222Y-70446089D01*
X72561737Y-70654173D01*
X72561738Y-70654176D01*
X72561741Y-70654179D01*
X72720241Y-70839759D01*
X72863897Y-70962453D01*
X72905823Y-70998261D01*
X72905825Y-70998261D01*
X72914640Y-71003663D01*
X73113910Y-71125777D01*
X73339381Y-71219169D01*
X73339378Y-71219169D01*
X73339384Y-71219170D01*
X73339388Y-71219172D01*
X73576698Y-71276146D01*
X73820000Y-71295294D01*
X74063302Y-71276146D01*
X74300612Y-71219172D01*
X74526089Y-71125777D01*
X74734179Y-70998259D01*
X74919759Y-70839759D01*
X75078259Y-70654179D01*
X75205777Y-70446089D01*
X75299172Y-70220612D01*
X75356146Y-69983302D01*
X75375294Y-69740000D01*
X75356146Y-69496698D01*
X75299172Y-69259388D01*
X75263818Y-69174035D01*
X75205777Y-69033910D01*
X75078262Y-68825826D01*
X75078261Y-68825823D01*
X75042453Y-68783897D01*
X74919759Y-68640241D01*
X74797063Y-68535449D01*
X74734176Y-68481738D01*
X74734173Y-68481737D01*
X74526089Y-68354222D01*
X74300618Y-68260830D01*
X74300621Y-68260830D01*
X74194711Y-68235403D01*
X74063302Y-68203854D01*
X74063300Y-68203853D01*
X74063297Y-68203853D01*
X73820000Y-68184706D01*
X73576702Y-68203853D01*
X73576697Y-68203854D01*
X73576698Y-68203854D01*
X73445248Y-68235413D01*
X73339380Y-68260830D01*
X73113910Y-68354222D01*
X72905826Y-68481737D01*
X72905823Y-68481738D01*
X72720241Y-68640241D01*
X72561738Y-68825823D01*
X72561737Y-68825826D01*
X72434222Y-69033910D01*
X72340830Y-69259380D01*
X72283853Y-69496702D01*
X72264706Y-69740000D01*
X69276619Y-69740000D01*
X69276619Y-66318719D01*
X66928637Y-66318719D01*
X66861598Y-66299034D01*
X66815843Y-66246230D01*
X66804638Y-66195250D01*
X66804627Y-66192790D01*
X66792322Y-63318719D01*
X67318900Y-63318719D01*
X67318900Y-65773159D01*
X68619900Y-65773159D01*
X68619900Y-64740000D01*
X72264706Y-64740000D01*
X72283853Y-64983297D01*
X72283853Y-64983300D01*
X72283854Y-64983302D01*
X72286983Y-64996337D01*
X72340830Y-65220619D01*
X72434222Y-65446089D01*
X72561737Y-65654173D01*
X72561738Y-65654176D01*
X72596954Y-65695408D01*
X72720241Y-65839759D01*
X72860166Y-65959266D01*
X72905823Y-65998261D01*
X72905826Y-65998262D01*
X73113910Y-66125777D01*
X73238198Y-66177258D01*
X73320617Y-66211397D01*
X73339381Y-66219169D01*
X73339378Y-66219169D01*
X73339384Y-66219170D01*
X73339388Y-66219172D01*
X73576698Y-66276146D01*
X73820000Y-66295294D01*
X74063302Y-66276146D01*
X74300612Y-66219172D01*
X74526089Y-66125777D01*
X74734179Y-65998259D01*
X74919759Y-65839759D01*
X75078259Y-65654179D01*
X75205777Y-65446089D01*
X75299172Y-65220612D01*
X75356146Y-64983302D01*
X75375294Y-64740000D01*
X75356146Y-64496698D01*
X75299172Y-64259388D01*
X75293465Y-64245610D01*
X75205777Y-64033910D01*
X75078262Y-63825826D01*
X75078261Y-63825823D01*
X74974221Y-63704008D01*
X74919759Y-63640241D01*
X74759937Y-63503740D01*
X74734176Y-63481738D01*
X74734173Y-63481737D01*
X74526089Y-63354222D01*
X74300618Y-63260830D01*
X74300621Y-63260830D01*
X74153775Y-63225575D01*
X74063302Y-63203854D01*
X74063300Y-63203853D01*
X74063297Y-63203853D01*
X73820000Y-63184706D01*
X73576702Y-63203853D01*
X73576697Y-63203854D01*
X73576698Y-63203854D01*
X73342671Y-63260040D01*
X73339380Y-63260830D01*
X73113910Y-63354222D01*
X72905826Y-63481737D01*
X72905823Y-63481738D01*
X72720241Y-63640241D01*
X72561738Y-63825823D01*
X72561737Y-63825826D01*
X72434222Y-64033910D01*
X72340830Y-64259380D01*
X72340828Y-64259387D01*
X72340828Y-64259388D01*
X72331705Y-64297387D01*
X72283853Y-64496702D01*
X72264706Y-64740000D01*
X68619900Y-64740000D01*
X68619900Y-63318719D01*
X67318900Y-63318719D01*
X66792322Y-63318719D01*
X66787310Y-62148025D01*
X77434710Y-62148025D01*
X77439264Y-62200064D01*
X77439500Y-62205470D01*
X77439500Y-62213709D01*
X77443306Y-62246275D01*
X77443934Y-62253454D01*
X77450000Y-62322791D01*
X77451461Y-62329867D01*
X77451403Y-62329878D01*
X77453034Y-62337237D01*
X77453092Y-62337224D01*
X77454757Y-62344250D01*
X77481025Y-62416424D01*
X77505185Y-62489331D01*
X77508236Y-62495874D01*
X77508182Y-62495898D01*
X77511470Y-62502688D01*
X77511521Y-62502663D01*
X77514761Y-62509113D01*
X77514762Y-62509114D01*
X77514763Y-62509117D01*
X77556965Y-62573283D01*
X77597287Y-62638655D01*
X77601766Y-62644319D01*
X77601719Y-62644356D01*
X77606482Y-62650202D01*
X77606528Y-62650164D01*
X77611173Y-62655700D01*
X77667018Y-62708386D01*
X80904267Y-65945634D01*
X80916048Y-65959266D01*
X80930390Y-65978530D01*
X80970420Y-66012119D01*
X80974392Y-66015759D01*
X80980224Y-66021591D01*
X80980227Y-66021594D01*
X81005947Y-66041931D01*
X81064788Y-66091304D01*
X81070818Y-66095270D01*
X81070785Y-66095319D01*
X81077143Y-66099369D01*
X81077175Y-66099319D01*
X81083320Y-66103109D01*
X81083323Y-66103111D01*
X81152936Y-66135572D01*
X81221567Y-66170040D01*
X81221572Y-66170041D01*
X81228361Y-66172513D01*
X81228340Y-66172570D01*
X81235455Y-66175043D01*
X81235475Y-66174986D01*
X81242330Y-66177258D01*
X81317558Y-66192790D01*
X81392279Y-66210500D01*
X81392289Y-66210500D01*
X81399452Y-66211338D01*
X81399444Y-66211397D01*
X81406945Y-66212164D01*
X81406951Y-66212105D01*
X81414140Y-66212734D01*
X81414144Y-66212733D01*
X81414145Y-66212734D01*
X81490918Y-66210500D01*
X115522299Y-66210500D01*
X115589338Y-66230185D01*
X115623873Y-66263376D01*
X115671505Y-66331401D01*
X115838597Y-66498493D01*
X115838603Y-66498498D01*
X116024158Y-66628425D01*
X116067783Y-66683002D01*
X116074977Y-66752500D01*
X116043454Y-66814855D01*
X116024158Y-66831575D01*
X115838597Y-66961505D01*
X115671505Y-67128597D01*
X115535965Y-67322169D01*
X115535964Y-67322171D01*
X115436098Y-67536335D01*
X115436094Y-67536344D01*
X115374938Y-67764586D01*
X115374936Y-67764596D01*
X115354341Y-67999999D01*
X115354341Y-68000000D01*
X115374936Y-68235403D01*
X115374938Y-68235413D01*
X115436094Y-68463655D01*
X115436096Y-68463659D01*
X115436097Y-68463663D01*
X115444526Y-68481738D01*
X115535965Y-68677830D01*
X115535967Y-68677834D01*
X115639591Y-68825823D01*
X115671501Y-68871396D01*
X115671506Y-68871402D01*
X115838597Y-69038493D01*
X115838603Y-69038498D01*
X116024158Y-69168425D01*
X116067783Y-69223002D01*
X116074977Y-69292500D01*
X116043454Y-69354855D01*
X116024158Y-69371575D01*
X115838597Y-69501505D01*
X115671505Y-69668597D01*
X115535965Y-69862169D01*
X115535964Y-69862171D01*
X115436098Y-70076335D01*
X115436094Y-70076344D01*
X115374938Y-70304586D01*
X115374936Y-70304596D01*
X115354341Y-70539999D01*
X115354341Y-70540000D01*
X115374936Y-70775403D01*
X115374938Y-70775413D01*
X115436094Y-71003655D01*
X115436096Y-71003659D01*
X115436097Y-71003663D01*
X115490042Y-71119348D01*
X115535965Y-71217830D01*
X115535967Y-71217834D01*
X115638374Y-71364085D01*
X115671501Y-71411396D01*
X115671506Y-71411402D01*
X115838597Y-71578493D01*
X115838603Y-71578498D01*
X116024158Y-71708425D01*
X116067783Y-71763002D01*
X116074977Y-71832500D01*
X116043454Y-71894855D01*
X116024158Y-71911575D01*
X115838597Y-72041505D01*
X115671505Y-72208597D01*
X115535965Y-72402169D01*
X115535964Y-72402171D01*
X115436098Y-72616335D01*
X115436094Y-72616344D01*
X115374938Y-72844586D01*
X115374936Y-72844596D01*
X115354341Y-73079999D01*
X115354341Y-73080000D01*
X115374936Y-73315403D01*
X115374938Y-73315413D01*
X115436094Y-73543655D01*
X115436096Y-73543659D01*
X115436097Y-73543663D01*
X115516004Y-73715023D01*
X115535965Y-73757830D01*
X115535967Y-73757834D01*
X115644281Y-73912521D01*
X115671505Y-73951401D01*
X115838599Y-74118495D01*
X115935384Y-74186264D01*
X116032165Y-74254032D01*
X116032167Y-74254033D01*
X116032170Y-74254035D01*
X116246337Y-74353903D01*
X116474592Y-74415063D01*
X116662918Y-74431539D01*
X116709999Y-74435659D01*
X116710000Y-74435659D01*
X116710001Y-74435659D01*
X116749234Y-74432226D01*
X116945408Y-74415063D01*
X117173663Y-74353903D01*
X117387830Y-74254035D01*
X117581401Y-74118495D01*
X117748495Y-73951401D01*
X117878424Y-73765842D01*
X117933002Y-73722217D01*
X118002500Y-73715023D01*
X118064855Y-73746546D01*
X118081575Y-73765842D01*
X118211500Y-73951395D01*
X118211505Y-73951401D01*
X118378599Y-74118495D01*
X118475384Y-74186264D01*
X118572165Y-74254032D01*
X118572167Y-74254033D01*
X118572170Y-74254035D01*
X118786337Y-74353903D01*
X119014592Y-74415063D01*
X119202918Y-74431539D01*
X119249999Y-74435659D01*
X119250000Y-74435659D01*
X119250001Y-74435659D01*
X119289234Y-74432226D01*
X119485408Y-74415063D01*
X119713663Y-74353903D01*
X119927830Y-74254035D01*
X120121401Y-74118495D01*
X120288495Y-73951401D01*
X120424035Y-73757830D01*
X120523903Y-73543663D01*
X120585063Y-73315408D01*
X120605659Y-73080000D01*
X120602491Y-73043796D01*
X120597725Y-72989313D01*
X120585063Y-72844592D01*
X120523903Y-72616337D01*
X120424035Y-72402171D01*
X120418425Y-72394158D01*
X120288494Y-72208597D01*
X120121402Y-72041506D01*
X120121396Y-72041501D01*
X119935842Y-71911575D01*
X119892217Y-71856998D01*
X119885023Y-71787500D01*
X119916546Y-71725145D01*
X119935842Y-71708425D01*
X119958026Y-71692891D01*
X120121401Y-71578495D01*
X120288495Y-71411401D01*
X120424035Y-71217830D01*
X120523903Y-71003663D01*
X120585063Y-70775408D01*
X120605659Y-70540000D01*
X120585063Y-70304592D01*
X120523903Y-70076337D01*
X120424035Y-69862171D01*
X120418425Y-69854158D01*
X120288494Y-69668597D01*
X120121402Y-69501506D01*
X120121396Y-69501501D01*
X119935842Y-69371575D01*
X119892217Y-69316998D01*
X119885023Y-69247500D01*
X119916546Y-69185145D01*
X119935842Y-69168425D01*
X119958026Y-69152891D01*
X120121401Y-69038495D01*
X120288495Y-68871401D01*
X120424035Y-68677830D01*
X120523903Y-68463663D01*
X120585063Y-68235408D01*
X120605659Y-68000000D01*
X120585063Y-67764592D01*
X120523903Y-67536337D01*
X120424035Y-67322171D01*
X120418425Y-67314158D01*
X120288494Y-67128597D01*
X120121402Y-66961506D01*
X120121396Y-66961501D01*
X119935842Y-66831575D01*
X119892217Y-66776998D01*
X119885023Y-66707500D01*
X119916546Y-66645145D01*
X119935842Y-66628425D01*
X119958026Y-66612891D01*
X120121401Y-66498495D01*
X120288495Y-66331401D01*
X120424035Y-66137830D01*
X120523903Y-65923663D01*
X120585063Y-65695408D01*
X120605659Y-65460000D01*
X120585063Y-65224592D01*
X120523903Y-64996337D01*
X120424035Y-64782171D01*
X120418425Y-64774158D01*
X120288494Y-64588597D01*
X120121402Y-64421506D01*
X120121396Y-64421501D01*
X119935842Y-64291575D01*
X119892217Y-64236998D01*
X119885023Y-64167500D01*
X119916546Y-64105145D01*
X119935842Y-64088425D01*
X120056984Y-64003600D01*
X120121401Y-63958495D01*
X120288495Y-63791401D01*
X120424035Y-63597830D01*
X120523903Y-63383663D01*
X120585063Y-63155408D01*
X120605659Y-62920000D01*
X120585063Y-62684592D01*
X120534497Y-62495874D01*
X120523905Y-62456344D01*
X120523904Y-62456343D01*
X120523903Y-62456337D01*
X120424035Y-62242171D01*
X120418425Y-62234158D01*
X120288494Y-62048597D01*
X120121402Y-61881506D01*
X120121396Y-61881501D01*
X119935842Y-61751575D01*
X119892217Y-61696998D01*
X119885023Y-61627500D01*
X119916546Y-61565145D01*
X119935842Y-61548425D01*
X120020511Y-61489139D01*
X120121401Y-61418495D01*
X120288495Y-61251401D01*
X120424035Y-61057830D01*
X120523903Y-60843663D01*
X120585063Y-60615408D01*
X120605659Y-60380000D01*
X120585063Y-60144592D01*
X120523903Y-59916337D01*
X120424035Y-59702171D01*
X120418425Y-59694158D01*
X120288494Y-59508597D01*
X120121402Y-59341506D01*
X120121396Y-59341501D01*
X119935842Y-59211575D01*
X119892217Y-59156998D01*
X119885023Y-59087500D01*
X119916546Y-59025145D01*
X119935842Y-59008425D01*
X120061483Y-58920450D01*
X120121401Y-58878495D01*
X120288495Y-58711401D01*
X120424035Y-58517830D01*
X120523903Y-58303663D01*
X120585063Y-58075408D01*
X120605659Y-57840000D01*
X120585063Y-57604592D01*
X120523903Y-57376337D01*
X120424035Y-57162171D01*
X120418425Y-57154158D01*
X120288494Y-56968597D01*
X120121402Y-56801506D01*
X120121396Y-56801501D01*
X119935842Y-56671575D01*
X119892217Y-56616998D01*
X119885023Y-56547500D01*
X119916546Y-56485145D01*
X119935842Y-56468425D01*
X119980340Y-56437267D01*
X120121401Y-56338495D01*
X120288495Y-56171401D01*
X120424035Y-55977830D01*
X120523903Y-55763663D01*
X120585063Y-55535408D01*
X120605659Y-55300000D01*
X120585063Y-55064592D01*
X120523903Y-54836337D01*
X120424035Y-54622171D01*
X120418425Y-54614158D01*
X120288494Y-54428597D01*
X120121402Y-54261506D01*
X120121396Y-54261501D01*
X119935842Y-54131575D01*
X119892217Y-54076998D01*
X119885023Y-54007500D01*
X119916546Y-53945145D01*
X119935842Y-53928425D01*
X119983308Y-53895189D01*
X120121401Y-53798495D01*
X120288495Y-53631401D01*
X120424035Y-53437830D01*
X120523903Y-53223663D01*
X120585063Y-52995408D01*
X120605659Y-52760000D01*
X120585063Y-52524592D01*
X120523903Y-52296337D01*
X120424035Y-52082171D01*
X120418425Y-52074158D01*
X120288494Y-51888597D01*
X120121402Y-51721506D01*
X120121396Y-51721501D01*
X119935842Y-51591575D01*
X119892217Y-51536998D01*
X119885023Y-51467500D01*
X119916546Y-51405145D01*
X119935842Y-51388425D01*
X119958026Y-51372891D01*
X120121401Y-51258495D01*
X120288495Y-51091401D01*
X120424035Y-50897830D01*
X120523903Y-50683663D01*
X120585063Y-50455408D01*
X120605659Y-50220000D01*
X120585063Y-49984592D01*
X120523903Y-49756337D01*
X120424035Y-49542171D01*
X120418425Y-49534158D01*
X120288494Y-49348597D01*
X120121402Y-49181506D01*
X120121396Y-49181501D01*
X119935842Y-49051575D01*
X119892217Y-48996998D01*
X119885023Y-48927500D01*
X119916546Y-48865145D01*
X119935842Y-48848425D01*
X120018407Y-48790612D01*
X120121401Y-48718495D01*
X120288495Y-48551401D01*
X120424035Y-48357830D01*
X120523903Y-48143663D01*
X120585063Y-47915408D01*
X120605659Y-47680000D01*
X120585063Y-47444592D01*
X120523903Y-47216337D01*
X120424035Y-47002171D01*
X120418731Y-46994595D01*
X120288494Y-46808597D01*
X120121402Y-46641506D01*
X120121396Y-46641501D01*
X119935842Y-46511575D01*
X119892217Y-46456998D01*
X119885023Y-46387500D01*
X119916546Y-46325145D01*
X119935842Y-46308425D01*
X120094923Y-46197035D01*
X120121401Y-46178495D01*
X120288495Y-46011401D01*
X120424035Y-45817830D01*
X120523903Y-45603663D01*
X120585063Y-45375408D01*
X120605659Y-45140000D01*
X120585063Y-44904592D01*
X120523903Y-44676337D01*
X120424035Y-44462171D01*
X120419342Y-44455469D01*
X120288496Y-44268600D01*
X120245855Y-44225959D01*
X120166567Y-44146671D01*
X120133084Y-44085351D01*
X120138068Y-44015659D01*
X120179939Y-43959725D01*
X120210915Y-43942810D01*
X120342331Y-43893796D01*
X120457546Y-43807546D01*
X120543796Y-43692331D01*
X120594091Y-43557483D01*
X120600500Y-43497873D01*
X120600499Y-41702128D01*
X120594091Y-41642517D01*
X120592810Y-41639083D01*
X120543797Y-41507671D01*
X120543793Y-41507664D01*
X120457547Y-41392455D01*
X120457544Y-41392452D01*
X120342335Y-41306206D01*
X120342328Y-41306202D01*
X120207482Y-41255908D01*
X120207483Y-41255908D01*
X120147883Y-41249501D01*
X120147881Y-41249500D01*
X120147873Y-41249500D01*
X120147864Y-41249500D01*
X118352129Y-41249500D01*
X118352123Y-41249501D01*
X118292516Y-41255908D01*
X118157671Y-41306202D01*
X118157664Y-41306206D01*
X118042455Y-41392452D01*
X118042452Y-41392455D01*
X117956206Y-41507664D01*
X117956203Y-41507669D01*
X117907189Y-41639083D01*
X117865317Y-41695016D01*
X117799853Y-41719433D01*
X117731580Y-41704581D01*
X117703326Y-41683430D01*
X117581402Y-41561506D01*
X117581395Y-41561501D01*
X117387834Y-41425967D01*
X117387830Y-41425965D01*
X117339658Y-41403502D01*
X117173663Y-41326097D01*
X117173659Y-41326096D01*
X117173655Y-41326094D01*
X116945413Y-41264938D01*
X116945403Y-41264936D01*
X116710001Y-41244341D01*
X116709999Y-41244341D01*
X116474596Y-41264936D01*
X116474586Y-41264938D01*
X116246344Y-41326094D01*
X116246335Y-41326098D01*
X116032171Y-41425964D01*
X116032169Y-41425965D01*
X115838597Y-41561505D01*
X115671505Y-41728597D01*
X115535965Y-41922169D01*
X115535964Y-41922171D01*
X115436098Y-42136335D01*
X115436094Y-42136344D01*
X115374938Y-42364586D01*
X115374936Y-42364596D01*
X115354341Y-42599999D01*
X115354341Y-42600001D01*
X115372977Y-42813013D01*
X115359210Y-42881513D01*
X115337130Y-42911501D01*
X112315451Y-45933181D01*
X112254128Y-45966666D01*
X112227770Y-45969500D01*
X102553705Y-45969500D01*
X102535735Y-45968191D01*
X102511972Y-45964710D01*
X102466533Y-45968686D01*
X102459931Y-45969264D01*
X102454530Y-45969500D01*
X102446289Y-45969500D01*
X102424579Y-45972037D01*
X102413724Y-45973306D01*
X102398419Y-45974645D01*
X102337199Y-45980001D01*
X102330132Y-45981460D01*
X102330120Y-45981404D01*
X102322763Y-45983035D01*
X102322777Y-45983092D01*
X102315743Y-45984759D01*
X102243575Y-46011025D01*
X102170675Y-46035181D01*
X102164126Y-46038236D01*
X102164101Y-46038183D01*
X102157308Y-46041471D01*
X102157334Y-46041523D01*
X102150880Y-46044764D01*
X102086708Y-46086971D01*
X102021347Y-46127285D01*
X102015683Y-46131765D01*
X102015647Y-46131719D01*
X102009798Y-46136484D01*
X102009835Y-46136528D01*
X102004310Y-46141164D01*
X101951597Y-46197035D01*
X94677525Y-53471105D01*
X94616202Y-53504590D01*
X94569435Y-53505733D01*
X94382263Y-53474500D01*
X94137737Y-53474500D01*
X94089498Y-53482549D01*
X93896541Y-53514748D01*
X93665270Y-53594143D01*
X93665265Y-53594145D01*
X93450212Y-53710526D01*
X93450208Y-53710529D01*
X93257252Y-53860713D01*
X93257242Y-53860722D01*
X93091632Y-54040621D01*
X92957888Y-54245333D01*
X92859663Y-54469265D01*
X92799636Y-54706304D01*
X92799634Y-54706316D01*
X92779443Y-54949994D01*
X92779443Y-54950005D01*
X92799634Y-55193683D01*
X92799636Y-55193695D01*
X92859663Y-55430734D01*
X92957888Y-55654666D01*
X93091632Y-55859378D01*
X93257242Y-56039277D01*
X93257252Y-56039286D01*
X93322349Y-56089953D01*
X93450212Y-56189473D01*
X93665267Y-56305855D01*
X93665270Y-56305856D01*
X93896541Y-56385251D01*
X93896543Y-56385251D01*
X93896545Y-56385252D01*
X94137737Y-56425500D01*
X94137738Y-56425500D01*
X94382262Y-56425500D01*
X94382263Y-56425500D01*
X94623455Y-56385252D01*
X94854733Y-56305855D01*
X95069788Y-56189473D01*
X95262754Y-56039281D01*
X95428368Y-55859377D01*
X95562111Y-55654667D01*
X95660336Y-55430736D01*
X95720364Y-55193692D01*
X95720365Y-55193683D01*
X95740557Y-54950005D01*
X95740557Y-54949994D01*
X95720365Y-54706316D01*
X95720364Y-54706313D01*
X95720364Y-54706308D01*
X95706278Y-54650684D01*
X95708903Y-54580864D01*
X95738801Y-54532565D01*
X102764548Y-47506818D01*
X102825871Y-47473334D01*
X102852229Y-47470500D01*
X112526295Y-47470500D01*
X112544265Y-47471809D01*
X112568023Y-47475289D01*
X112620068Y-47470735D01*
X112625470Y-47470500D01*
X112633704Y-47470500D01*
X112633709Y-47470500D01*
X112645327Y-47469141D01*
X112666276Y-47466693D01*
X112679028Y-47465577D01*
X112742797Y-47459999D01*
X112742805Y-47459996D01*
X112749866Y-47458539D01*
X112749878Y-47458598D01*
X112757243Y-47456965D01*
X112757229Y-47456906D01*
X112764246Y-47455241D01*
X112764255Y-47455241D01*
X112836423Y-47428974D01*
X112909334Y-47404814D01*
X112909343Y-47404807D01*
X112915882Y-47401760D01*
X112915908Y-47401816D01*
X112922690Y-47398532D01*
X112922663Y-47398478D01*
X112929106Y-47395240D01*
X112929117Y-47395237D01*
X112993283Y-47353034D01*
X113058656Y-47312712D01*
X113058662Y-47312705D01*
X113064325Y-47308229D01*
X113064363Y-47308277D01*
X113070200Y-47303522D01*
X113070161Y-47303475D01*
X113075696Y-47298830D01*
X113128385Y-47242983D01*
X114596344Y-45775023D01*
X115156417Y-45214949D01*
X115217738Y-45181466D01*
X115287430Y-45186450D01*
X115343363Y-45228322D01*
X115367624Y-45291824D01*
X115374936Y-45375403D01*
X115374938Y-45375413D01*
X115436094Y-45603655D01*
X115436096Y-45603659D01*
X115436097Y-45603663D01*
X115440000Y-45612032D01*
X115535965Y-45817830D01*
X115535967Y-45817834D01*
X115616735Y-45933181D01*
X115671501Y-46011396D01*
X115671506Y-46011402D01*
X115838597Y-46178493D01*
X115838603Y-46178498D01*
X116024594Y-46308730D01*
X116068219Y-46363307D01*
X116075413Y-46432805D01*
X116043890Y-46495160D01*
X116024595Y-46511880D01*
X115838922Y-46641890D01*
X115838920Y-46641891D01*
X115671891Y-46808920D01*
X115671886Y-46808926D01*
X115536400Y-47002420D01*
X115536399Y-47002422D01*
X115436570Y-47216507D01*
X115436567Y-47216513D01*
X115379364Y-47429999D01*
X115379364Y-47430000D01*
X116096653Y-47430000D01*
X116163692Y-47449685D01*
X116209447Y-47502489D01*
X116219391Y-47571647D01*
X116215631Y-47588933D01*
X116210000Y-47608111D01*
X116210000Y-47751888D01*
X116215631Y-47771067D01*
X116215630Y-47840936D01*
X116177855Y-47899714D01*
X116114299Y-47928738D01*
X116096653Y-47930000D01*
X115379364Y-47930000D01*
X115436567Y-48143486D01*
X115436570Y-48143492D01*
X115536399Y-48357578D01*
X115671894Y-48551082D01*
X115838917Y-48718105D01*
X116024595Y-48848119D01*
X116068219Y-48902696D01*
X116075412Y-48972195D01*
X116043890Y-49034549D01*
X116024595Y-49051269D01*
X115838594Y-49181508D01*
X115671505Y-49348597D01*
X115535965Y-49542169D01*
X115535964Y-49542171D01*
X115436098Y-49756335D01*
X115436094Y-49756344D01*
X115374938Y-49984586D01*
X115374936Y-49984596D01*
X115354341Y-50219999D01*
X115354341Y-50220000D01*
X115374936Y-50455403D01*
X115374938Y-50455413D01*
X115436094Y-50683655D01*
X115436096Y-50683659D01*
X115436097Y-50683663D01*
X115440000Y-50692032D01*
X115535965Y-50897830D01*
X115535967Y-50897834D01*
X115629312Y-51031143D01*
X115671501Y-51091396D01*
X115671506Y-51091402D01*
X115838597Y-51258493D01*
X115838603Y-51258498D01*
X116024158Y-51388425D01*
X116067783Y-51443002D01*
X116074977Y-51512500D01*
X116043454Y-51574855D01*
X116024158Y-51591575D01*
X115838597Y-51721505D01*
X115671505Y-51888597D01*
X115535965Y-52082169D01*
X115535964Y-52082171D01*
X115436098Y-52296335D01*
X115436094Y-52296344D01*
X115374938Y-52524586D01*
X115374936Y-52524596D01*
X115354341Y-52759999D01*
X115354341Y-52760000D01*
X115374936Y-52995403D01*
X115374938Y-52995413D01*
X115436094Y-53223655D01*
X115436096Y-53223659D01*
X115436097Y-53223663D01*
X115500757Y-53362327D01*
X115535965Y-53437830D01*
X115535967Y-53437834D01*
X115644281Y-53592521D01*
X115671501Y-53631396D01*
X115671506Y-53631402D01*
X115838597Y-53798493D01*
X115838603Y-53798498D01*
X116024158Y-53928425D01*
X116067783Y-53983002D01*
X116074977Y-54052500D01*
X116043454Y-54114855D01*
X116024158Y-54131575D01*
X115838597Y-54261505D01*
X115671505Y-54428597D01*
X115535965Y-54622169D01*
X115535964Y-54622171D01*
X115436098Y-54836335D01*
X115436094Y-54836344D01*
X115374938Y-55064586D01*
X115374936Y-55064596D01*
X115354341Y-55299999D01*
X115354341Y-55300000D01*
X115374936Y-55535403D01*
X115374938Y-55535413D01*
X115436094Y-55763655D01*
X115436096Y-55763659D01*
X115436097Y-55763663D01*
X115508977Y-55919954D01*
X115535965Y-55977830D01*
X115535967Y-55977834D01*
X115608106Y-56080858D01*
X115671501Y-56171396D01*
X115671506Y-56171402D01*
X115838597Y-56338493D01*
X115838603Y-56338498D01*
X116024158Y-56468425D01*
X116067783Y-56523002D01*
X116074977Y-56592500D01*
X116043454Y-56654855D01*
X116024158Y-56671575D01*
X115838597Y-56801505D01*
X115671505Y-56968597D01*
X115535965Y-57162169D01*
X115535964Y-57162171D01*
X115436098Y-57376335D01*
X115436094Y-57376344D01*
X115374938Y-57604586D01*
X115374936Y-57604596D01*
X115367624Y-57688174D01*
X115342171Y-57753243D01*
X115285580Y-57794221D01*
X115215818Y-57798099D01*
X115156415Y-57765047D01*
X114300729Y-56909361D01*
X114288949Y-56895730D01*
X114281482Y-56885701D01*
X114274612Y-56876472D01*
X114274610Y-56876470D01*
X114234587Y-56842886D01*
X114230612Y-56839244D01*
X114227690Y-56836322D01*
X114224780Y-56833411D01*
X114199040Y-56813059D01*
X114185272Y-56801506D01*
X114140214Y-56763698D01*
X114140213Y-56763697D01*
X114140209Y-56763694D01*
X114134180Y-56759729D01*
X114134212Y-56759680D01*
X114127853Y-56755628D01*
X114127822Y-56755679D01*
X114121680Y-56751891D01*
X114121678Y-56751890D01*
X114121677Y-56751889D01*
X114082474Y-56733608D01*
X114052058Y-56719424D01*
X114000043Y-56693302D01*
X113983433Y-56684960D01*
X113983431Y-56684959D01*
X113983430Y-56684959D01*
X113976645Y-56682489D01*
X113976665Y-56682433D01*
X113969549Y-56679959D01*
X113969531Y-56680015D01*
X113962671Y-56677742D01*
X113932802Y-56671575D01*
X113887434Y-56662207D01*
X113838472Y-56650603D01*
X113812719Y-56644499D01*
X113805547Y-56643661D01*
X113805553Y-56643601D01*
X113798055Y-56642835D01*
X113798050Y-56642895D01*
X113790860Y-56642265D01*
X113714083Y-56644500D01*
X106766326Y-56644500D01*
X106699287Y-56624815D01*
X106653532Y-56572011D01*
X106643588Y-56502853D01*
X106672613Y-56439297D01*
X106731391Y-56401523D01*
X106745916Y-56398191D01*
X106823455Y-56385252D01*
X107054733Y-56305855D01*
X107269788Y-56189473D01*
X107462754Y-56039281D01*
X107628368Y-55859377D01*
X107762111Y-55654667D01*
X107860336Y-55430736D01*
X107920364Y-55193692D01*
X107920365Y-55193683D01*
X107940557Y-54950005D01*
X107940557Y-54949994D01*
X107920365Y-54706316D01*
X107920363Y-54706307D01*
X107860336Y-54469264D01*
X107762111Y-54245333D01*
X107762110Y-54245333D01*
X107628367Y-54040621D01*
X107462757Y-53860722D01*
X107462747Y-53860713D01*
X107269791Y-53710529D01*
X107269787Y-53710526D01*
X107054734Y-53594145D01*
X107054729Y-53594143D01*
X106823458Y-53514748D01*
X106642471Y-53484547D01*
X106582263Y-53474500D01*
X106337737Y-53474500D01*
X106289498Y-53482549D01*
X106096541Y-53514748D01*
X105865270Y-53594143D01*
X105865265Y-53594145D01*
X105650212Y-53710526D01*
X105650208Y-53710529D01*
X105457252Y-53860713D01*
X105457242Y-53860722D01*
X105291632Y-54040621D01*
X105157888Y-54245333D01*
X105059663Y-54469265D01*
X104999636Y-54706304D01*
X104999634Y-54706316D01*
X104979443Y-54949994D01*
X104979443Y-54950005D01*
X104999634Y-55193683D01*
X104999636Y-55193695D01*
X105059663Y-55430734D01*
X105157888Y-55654666D01*
X105291632Y-55859378D01*
X105457242Y-56039277D01*
X105457252Y-56039286D01*
X105522349Y-56089953D01*
X105650212Y-56189473D01*
X105865267Y-56305855D01*
X105865270Y-56305856D01*
X106096541Y-56385251D01*
X106096543Y-56385251D01*
X106096545Y-56385252D01*
X106174084Y-56398191D01*
X106236969Y-56428642D01*
X106273409Y-56488256D01*
X106271833Y-56558108D01*
X106232743Y-56616020D01*
X106168549Y-56643605D01*
X106153674Y-56644500D01*
X94958705Y-56644500D01*
X94940735Y-56643191D01*
X94916972Y-56639710D01*
X94872469Y-56643605D01*
X94864933Y-56644264D01*
X94859532Y-56644500D01*
X94851288Y-56644500D01*
X94818707Y-56648308D01*
X94742199Y-56655001D01*
X94735133Y-56656461D01*
X94735121Y-56656404D01*
X94727754Y-56658038D01*
X94727768Y-56658094D01*
X94720751Y-56659756D01*
X94648573Y-56686026D01*
X94575662Y-56710187D01*
X94569119Y-56713238D01*
X94569094Y-56713186D01*
X94562314Y-56716468D01*
X94562340Y-56716520D01*
X94555881Y-56719764D01*
X94491709Y-56761970D01*
X94426345Y-56802288D01*
X94420677Y-56806770D01*
X94420641Y-56806724D01*
X94414798Y-56811484D01*
X94414835Y-56811528D01*
X94409310Y-56816164D01*
X94356597Y-56872035D01*
X92525451Y-58703181D01*
X92464128Y-58736666D01*
X92437770Y-58739500D01*
X84812229Y-58739500D01*
X84745190Y-58719815D01*
X84724548Y-58703181D01*
X83376716Y-57355348D01*
X83343231Y-57294025D01*
X83340869Y-57256863D01*
X83355468Y-57090000D01*
X83340595Y-56920001D01*
X85394532Y-56920001D01*
X85414364Y-57146686D01*
X85414366Y-57146697D01*
X85473258Y-57366488D01*
X85473261Y-57366497D01*
X85569431Y-57572732D01*
X85569432Y-57572734D01*
X85699954Y-57759141D01*
X85860858Y-57920045D01*
X85860861Y-57920047D01*
X86047266Y-58050568D01*
X86253504Y-58146739D01*
X86253509Y-58146740D01*
X86253511Y-58146741D01*
X86306415Y-58160916D01*
X86473308Y-58205635D01*
X86614515Y-58217989D01*
X86699998Y-58225468D01*
X86700000Y-58225468D01*
X86700002Y-58225468D01*
X86756673Y-58220509D01*
X86926692Y-58205635D01*
X87146496Y-58146739D01*
X87352734Y-58050568D01*
X87539139Y-57920047D01*
X87700047Y-57759139D01*
X87830568Y-57572734D01*
X87926739Y-57366496D01*
X87985635Y-57146692D01*
X88005468Y-56920000D01*
X87985635Y-56693308D01*
X87926739Y-56473504D01*
X87830568Y-56267266D01*
X87700047Y-56080861D01*
X87700045Y-56080858D01*
X87539141Y-55919954D01*
X87352734Y-55789432D01*
X87352732Y-55789431D01*
X87146497Y-55693261D01*
X87146488Y-55693258D01*
X86926697Y-55634366D01*
X86926693Y-55634365D01*
X86926692Y-55634365D01*
X86926691Y-55634364D01*
X86926686Y-55634364D01*
X86700002Y-55614532D01*
X86699998Y-55614532D01*
X86473313Y-55634364D01*
X86473302Y-55634366D01*
X86253511Y-55693258D01*
X86253502Y-55693261D01*
X86047267Y-55789431D01*
X86047265Y-55789432D01*
X85860858Y-55919954D01*
X85699954Y-56080858D01*
X85569432Y-56267265D01*
X85569431Y-56267267D01*
X85473261Y-56473502D01*
X85473258Y-56473511D01*
X85414366Y-56693302D01*
X85414364Y-56693313D01*
X85394532Y-56919998D01*
X85394532Y-56920001D01*
X83340595Y-56920001D01*
X83335635Y-56863308D01*
X83281751Y-56662208D01*
X83276741Y-56643511D01*
X83276738Y-56643502D01*
X83231971Y-56547500D01*
X83180568Y-56437266D01*
X83050047Y-56250861D01*
X83050045Y-56250858D01*
X82889141Y-56089954D01*
X82702734Y-55959432D01*
X82702732Y-55959431D01*
X82496497Y-55863261D01*
X82496488Y-55863258D01*
X82276697Y-55804366D01*
X82276693Y-55804365D01*
X82276692Y-55804365D01*
X82276691Y-55804364D01*
X82276686Y-55804364D01*
X82050002Y-55784532D01*
X82049998Y-55784532D01*
X81823313Y-55804364D01*
X81823302Y-55804366D01*
X81603511Y-55863258D01*
X81603502Y-55863261D01*
X81397267Y-55959431D01*
X81397265Y-55959432D01*
X81210858Y-56089954D01*
X81182181Y-56118632D01*
X81120858Y-56152117D01*
X81051166Y-56147133D01*
X80995233Y-56105261D01*
X80970816Y-56039797D01*
X80970500Y-56030951D01*
X80970500Y-53962228D01*
X80990185Y-53895189D01*
X81006814Y-53874552D01*
X85931361Y-48950005D01*
X90779443Y-48950005D01*
X90799634Y-49193683D01*
X90799636Y-49193695D01*
X90859663Y-49430734D01*
X90957888Y-49654666D01*
X91091632Y-49859378D01*
X91257242Y-50039277D01*
X91257246Y-50039281D01*
X91450212Y-50189473D01*
X91665267Y-50305855D01*
X91665270Y-50305856D01*
X91896541Y-50385251D01*
X91896543Y-50385251D01*
X91896545Y-50385252D01*
X92137737Y-50425500D01*
X92137738Y-50425500D01*
X92382262Y-50425500D01*
X92382263Y-50425500D01*
X92623455Y-50385252D01*
X92854733Y-50305855D01*
X93069788Y-50189473D01*
X93262754Y-50039281D01*
X93428368Y-49859377D01*
X93562111Y-49654667D01*
X93660336Y-49430736D01*
X93720364Y-49193692D01*
X93729571Y-49082579D01*
X93740557Y-48950005D01*
X93740557Y-48949994D01*
X93720365Y-48706316D01*
X93720363Y-48706304D01*
X93681136Y-48551400D01*
X93660336Y-48469264D01*
X93562111Y-48245333D01*
X93495575Y-48143492D01*
X93428367Y-48040621D01*
X93262757Y-47860722D01*
X93262747Y-47860713D01*
X93069791Y-47710529D01*
X93069787Y-47710526D01*
X92854734Y-47594145D01*
X92854729Y-47594143D01*
X92623458Y-47514748D01*
X92442561Y-47484562D01*
X92382263Y-47474500D01*
X92137737Y-47474500D01*
X92089498Y-47482549D01*
X91896541Y-47514748D01*
X91665270Y-47594143D01*
X91665265Y-47594145D01*
X91450212Y-47710526D01*
X91450208Y-47710529D01*
X91257252Y-47860713D01*
X91257242Y-47860722D01*
X91091632Y-48040621D01*
X90957888Y-48245333D01*
X90859663Y-48469265D01*
X90799636Y-48706304D01*
X90799634Y-48706316D01*
X90779443Y-48949994D01*
X90779443Y-48950005D01*
X85931361Y-48950005D01*
X91144548Y-43736818D01*
X91205871Y-43703334D01*
X91232229Y-43700500D01*
X92920727Y-43700500D01*
X92987766Y-43720185D01*
X93024536Y-43756679D01*
X93091632Y-43859378D01*
X93257242Y-44039277D01*
X93257252Y-44039286D01*
X93450208Y-44189470D01*
X93450212Y-44189473D01*
X93660584Y-44303321D01*
X93665267Y-44305855D01*
X93665270Y-44305856D01*
X93896541Y-44385251D01*
X93896543Y-44385251D01*
X93896545Y-44385252D01*
X94137737Y-44425500D01*
X94137738Y-44425500D01*
X94382262Y-44425500D01*
X94382263Y-44425500D01*
X94623455Y-44385252D01*
X94854733Y-44305855D01*
X95069788Y-44189473D01*
X95262754Y-44039281D01*
X95428368Y-43859377D01*
X95562111Y-43654667D01*
X95660336Y-43430736D01*
X95720364Y-43193692D01*
X95721771Y-43176716D01*
X95740557Y-42950005D01*
X104979443Y-42950005D01*
X104999634Y-43193683D01*
X104999636Y-43193695D01*
X105059663Y-43430734D01*
X105157888Y-43654666D01*
X105291632Y-43859378D01*
X105457242Y-44039277D01*
X105457252Y-44039286D01*
X105650208Y-44189470D01*
X105650212Y-44189473D01*
X105860584Y-44303321D01*
X105865267Y-44305855D01*
X105865270Y-44305856D01*
X106096541Y-44385251D01*
X106096543Y-44385251D01*
X106096545Y-44385252D01*
X106337737Y-44425500D01*
X106337738Y-44425500D01*
X106582262Y-44425500D01*
X106582263Y-44425500D01*
X106823455Y-44385252D01*
X107054733Y-44305855D01*
X107269788Y-44189473D01*
X107462754Y-44039281D01*
X107628368Y-43859377D01*
X107762111Y-43654667D01*
X107860336Y-43430736D01*
X107920364Y-43193692D01*
X107921771Y-43176716D01*
X107940557Y-42950005D01*
X107940557Y-42949994D01*
X107920365Y-42706316D01*
X107920363Y-42706304D01*
X107893443Y-42599999D01*
X107860336Y-42469264D01*
X107762111Y-42245333D01*
X107690901Y-42136337D01*
X107628367Y-42040621D01*
X107462757Y-41860722D01*
X107462747Y-41860713D01*
X107269791Y-41710529D01*
X107269787Y-41710526D01*
X107054734Y-41594145D01*
X107054729Y-41594143D01*
X106823458Y-41514748D01*
X106637323Y-41483688D01*
X106582263Y-41474500D01*
X106337737Y-41474500D01*
X106289498Y-41482549D01*
X106096541Y-41514748D01*
X105865270Y-41594143D01*
X105865265Y-41594145D01*
X105650212Y-41710526D01*
X105650208Y-41710529D01*
X105457252Y-41860713D01*
X105457242Y-41860722D01*
X105291632Y-42040621D01*
X105157888Y-42245333D01*
X105059663Y-42469265D01*
X104999636Y-42706304D01*
X104999634Y-42706316D01*
X104979443Y-42949994D01*
X104979443Y-42950005D01*
X95740557Y-42950005D01*
X95740557Y-42949994D01*
X95720365Y-42706316D01*
X95720363Y-42706304D01*
X95693443Y-42599999D01*
X95660336Y-42469264D01*
X95562111Y-42245333D01*
X95490901Y-42136337D01*
X95428367Y-42040621D01*
X95262757Y-41860722D01*
X95262747Y-41860713D01*
X95069791Y-41710529D01*
X95069787Y-41710526D01*
X94854734Y-41594145D01*
X94854729Y-41594143D01*
X94623458Y-41514748D01*
X94437323Y-41483688D01*
X94382263Y-41474500D01*
X94137737Y-41474500D01*
X94089498Y-41482549D01*
X93896541Y-41514748D01*
X93665270Y-41594143D01*
X93665265Y-41594145D01*
X93450212Y-41710526D01*
X93450208Y-41710529D01*
X93257252Y-41860713D01*
X93257242Y-41860722D01*
X93091632Y-42040621D01*
X93024536Y-42143321D01*
X92971390Y-42188678D01*
X92920727Y-42199500D01*
X90933705Y-42199500D01*
X90915735Y-42198191D01*
X90891972Y-42194710D01*
X90846890Y-42198655D01*
X90839933Y-42199264D01*
X90834532Y-42199500D01*
X90826288Y-42199500D01*
X90793707Y-42203308D01*
X90717199Y-42210001D01*
X90710133Y-42211461D01*
X90710121Y-42211404D01*
X90702754Y-42213038D01*
X90702768Y-42213094D01*
X90695751Y-42214756D01*
X90623573Y-42241026D01*
X90550662Y-42265187D01*
X90544119Y-42268238D01*
X90544094Y-42268186D01*
X90537314Y-42271468D01*
X90537340Y-42271520D01*
X90530881Y-42274764D01*
X90466709Y-42316970D01*
X90401345Y-42357288D01*
X90395677Y-42361770D01*
X90395641Y-42361724D01*
X90389798Y-42366484D01*
X90389835Y-42366528D01*
X90384310Y-42371164D01*
X90331597Y-42427035D01*
X80061790Y-52696840D01*
X80000467Y-52730325D01*
X79930775Y-52725341D01*
X79874842Y-52683469D01*
X79850425Y-52618005D01*
X79861728Y-52556753D01*
X79875575Y-52527057D01*
X79910036Y-52458440D01*
X79910040Y-52458433D01*
X79910042Y-52458421D01*
X79912509Y-52451646D01*
X79912567Y-52451667D01*
X79915043Y-52444546D01*
X79914986Y-52444527D01*
X79917255Y-52437680D01*
X79917256Y-52437675D01*
X79917257Y-52437673D01*
X79932791Y-52362437D01*
X79950500Y-52287721D01*
X79950500Y-52287719D01*
X79951339Y-52280548D01*
X79951398Y-52280554D01*
X79952164Y-52273054D01*
X79952105Y-52273049D01*
X79952734Y-52265859D01*
X79950500Y-52189082D01*
X79950500Y-45062229D01*
X79970185Y-44995190D01*
X79986819Y-44974548D01*
X80876016Y-44085351D01*
X81784652Y-43176714D01*
X81845973Y-43143231D01*
X81883135Y-43140869D01*
X82026366Y-43153400D01*
X82049999Y-43155468D01*
X82050000Y-43155468D01*
X82050002Y-43155468D01*
X82106673Y-43150509D01*
X82276692Y-43135635D01*
X82496496Y-43076739D01*
X82702734Y-42980568D01*
X82889139Y-42850047D01*
X83050047Y-42689139D01*
X83180568Y-42502734D01*
X83276739Y-42296496D01*
X83335635Y-42076692D01*
X83355468Y-41850000D01*
X83340595Y-41680001D01*
X85394532Y-41680001D01*
X85414364Y-41906686D01*
X85414366Y-41906697D01*
X85473258Y-42126488D01*
X85473261Y-42126497D01*
X85569431Y-42332732D01*
X85569432Y-42332734D01*
X85699954Y-42519141D01*
X85860858Y-42680045D01*
X85860861Y-42680047D01*
X86047266Y-42810568D01*
X86253504Y-42906739D01*
X86473308Y-42965635D01*
X86635230Y-42979801D01*
X86699998Y-42985468D01*
X86700000Y-42985468D01*
X86700002Y-42985468D01*
X86756673Y-42980509D01*
X86926692Y-42965635D01*
X87146496Y-42906739D01*
X87352734Y-42810568D01*
X87539139Y-42680047D01*
X87700047Y-42519139D01*
X87830568Y-42332734D01*
X87926739Y-42126496D01*
X87985635Y-41906692D01*
X88003532Y-41702127D01*
X88005468Y-41680001D01*
X88005468Y-41679998D01*
X87995807Y-41569571D01*
X87985635Y-41453308D01*
X87926739Y-41233504D01*
X87830568Y-41027266D01*
X87700047Y-40840861D01*
X87700045Y-40840858D01*
X87539141Y-40679954D01*
X87352734Y-40549432D01*
X87352732Y-40549431D01*
X87146497Y-40453261D01*
X87146488Y-40453258D01*
X86926697Y-40394366D01*
X86926693Y-40394365D01*
X86926692Y-40394365D01*
X86926691Y-40394364D01*
X86926686Y-40394364D01*
X86700002Y-40374532D01*
X86699998Y-40374532D01*
X86473313Y-40394364D01*
X86473302Y-40394366D01*
X86253511Y-40453258D01*
X86253502Y-40453261D01*
X86047267Y-40549431D01*
X86047265Y-40549432D01*
X85860858Y-40679954D01*
X85699954Y-40840858D01*
X85569432Y-41027265D01*
X85569431Y-41027267D01*
X85473261Y-41233502D01*
X85473258Y-41233511D01*
X85414366Y-41453302D01*
X85414364Y-41453313D01*
X85394532Y-41679998D01*
X85394532Y-41680001D01*
X83340595Y-41680001D01*
X83335635Y-41623308D01*
X83276739Y-41403504D01*
X83180568Y-41197266D01*
X83050047Y-41010861D01*
X83050045Y-41010858D01*
X82889141Y-40849954D01*
X82702734Y-40719432D01*
X82702732Y-40719431D01*
X82496497Y-40623261D01*
X82496488Y-40623258D01*
X82276697Y-40564366D01*
X82276693Y-40564365D01*
X82276692Y-40564365D01*
X82276691Y-40564364D01*
X82276686Y-40564364D01*
X82050002Y-40544532D01*
X82049998Y-40544532D01*
X81823313Y-40564364D01*
X81823302Y-40564366D01*
X81603511Y-40623258D01*
X81603502Y-40623261D01*
X81397267Y-40719431D01*
X81397265Y-40719432D01*
X81210858Y-40849954D01*
X81049954Y-41010858D01*
X80919432Y-41197265D01*
X80919431Y-41197267D01*
X80823261Y-41403502D01*
X80823258Y-41403511D01*
X80764366Y-41623302D01*
X80764364Y-41623313D01*
X80744532Y-41849998D01*
X80744532Y-41850003D01*
X80759129Y-42016861D01*
X80745362Y-42085360D01*
X80723282Y-42115348D01*
X78714358Y-44124272D01*
X78700729Y-44136051D01*
X78681468Y-44150390D01*
X78647898Y-44190397D01*
X78644253Y-44194376D01*
X78638409Y-44200222D01*
X78618059Y-44225959D01*
X78568695Y-44284789D01*
X78564729Y-44290819D01*
X78564682Y-44290788D01*
X78560630Y-44297147D01*
X78560679Y-44297177D01*
X78556889Y-44303321D01*
X78524424Y-44372941D01*
X78489960Y-44441566D01*
X78487488Y-44448357D01*
X78487432Y-44448336D01*
X78484960Y-44455450D01*
X78485015Y-44455469D01*
X78482742Y-44462327D01*
X78480445Y-44473454D01*
X78467207Y-44537565D01*
X78454001Y-44593284D01*
X78449498Y-44612286D01*
X78448661Y-44619454D01*
X78448601Y-44619447D01*
X78447835Y-44626945D01*
X78447895Y-44626951D01*
X78447265Y-44634140D01*
X78449500Y-44710916D01*
X78449500Y-51837769D01*
X78429815Y-51904808D01*
X78413181Y-51925450D01*
X77704358Y-52634272D01*
X77690729Y-52646051D01*
X77671468Y-52660390D01*
X77637898Y-52700397D01*
X77634253Y-52704376D01*
X77628409Y-52710222D01*
X77608059Y-52735959D01*
X77558695Y-52794789D01*
X77554729Y-52800819D01*
X77554682Y-52800788D01*
X77550630Y-52807147D01*
X77550679Y-52807177D01*
X77546889Y-52813321D01*
X77514424Y-52882941D01*
X77479960Y-52951566D01*
X77477488Y-52958357D01*
X77477432Y-52958336D01*
X77474960Y-52965450D01*
X77475015Y-52965469D01*
X77472742Y-52972327D01*
X77467978Y-52995403D01*
X77457207Y-53047565D01*
X77450787Y-53074655D01*
X77439498Y-53122286D01*
X77438661Y-53129454D01*
X77438601Y-53129447D01*
X77437835Y-53136945D01*
X77437895Y-53136951D01*
X77437265Y-53144140D01*
X77439500Y-53220916D01*
X77439500Y-62106294D01*
X77438191Y-62124263D01*
X77434710Y-62148025D01*
X66787310Y-62148025D01*
X66782969Y-61134158D01*
X66780773Y-60621150D01*
X66800170Y-60554027D01*
X66852778Y-60508046D01*
X66904772Y-60496619D01*
X69071280Y-60496619D01*
X69071280Y-59740000D01*
X72264706Y-59740000D01*
X72283853Y-59983297D01*
X72283853Y-59983300D01*
X72283854Y-59983302D01*
X72337076Y-60204986D01*
X72340830Y-60220619D01*
X72434222Y-60446089D01*
X72561737Y-60654173D01*
X72561738Y-60654176D01*
X72561741Y-60654179D01*
X72720241Y-60839759D01*
X72863897Y-60962453D01*
X72905823Y-60998261D01*
X72905826Y-60998262D01*
X73113910Y-61125777D01*
X73339381Y-61219169D01*
X73339378Y-61219169D01*
X73339384Y-61219170D01*
X73339388Y-61219172D01*
X73576698Y-61276146D01*
X73820000Y-61295294D01*
X74063302Y-61276146D01*
X74300612Y-61219172D01*
X74526089Y-61125777D01*
X74734179Y-60998259D01*
X74919759Y-60839759D01*
X75078259Y-60654179D01*
X75205777Y-60446089D01*
X75299172Y-60220612D01*
X75356146Y-59983302D01*
X75375294Y-59740000D01*
X75356146Y-59496698D01*
X75299172Y-59259388D01*
X75298270Y-59257210D01*
X75205777Y-59033910D01*
X75078262Y-58825826D01*
X75078261Y-58825823D01*
X75004534Y-58739500D01*
X74919759Y-58640241D01*
X74763222Y-58506546D01*
X74734176Y-58481738D01*
X74734173Y-58481737D01*
X74526089Y-58354222D01*
X74300618Y-58260830D01*
X74300621Y-58260830D01*
X74153329Y-58225468D01*
X74063302Y-58203854D01*
X74063300Y-58203853D01*
X74063297Y-58203853D01*
X73820000Y-58184706D01*
X73576702Y-58203853D01*
X73576697Y-58203854D01*
X73576698Y-58203854D01*
X73346532Y-58259113D01*
X73339380Y-58260830D01*
X73113910Y-58354222D01*
X72905826Y-58481737D01*
X72905823Y-58481738D01*
X72720241Y-58640241D01*
X72561738Y-58825823D01*
X72561737Y-58825826D01*
X72434222Y-59033910D01*
X72340830Y-59259380D01*
X72340828Y-59259387D01*
X72340828Y-59259388D01*
X72326628Y-59318533D01*
X72283853Y-59496702D01*
X72264706Y-59740000D01*
X69071280Y-59740000D01*
X69071280Y-58042180D01*
X66893201Y-58042180D01*
X66826162Y-58022495D01*
X66780407Y-57969691D01*
X66769202Y-57918711D01*
X66759683Y-55695321D01*
X69405037Y-55695321D01*
X72216619Y-55695321D01*
X72216619Y-53920999D01*
X72236304Y-53853960D01*
X72289108Y-53808205D01*
X72358266Y-53798261D01*
X72421822Y-53827286D01*
X72455180Y-53873547D01*
X72514220Y-54016085D01*
X72514222Y-54016088D01*
X72641737Y-54224173D01*
X72641738Y-54224176D01*
X72641741Y-54224179D01*
X72800241Y-54409759D01*
X72869913Y-54469264D01*
X72985823Y-54568261D01*
X72985826Y-54568262D01*
X73193910Y-54695777D01*
X73419381Y-54789169D01*
X73419378Y-54789169D01*
X73419384Y-54789170D01*
X73419388Y-54789172D01*
X73656698Y-54846146D01*
X73900000Y-54865294D01*
X74143302Y-54846146D01*
X74380612Y-54789172D01*
X74606089Y-54695777D01*
X74814179Y-54568259D01*
X74999759Y-54409759D01*
X75158259Y-54224179D01*
X75285777Y-54016089D01*
X75379172Y-53790612D01*
X75436146Y-53553302D01*
X75455294Y-53310000D01*
X75436146Y-53066698D01*
X75379172Y-52829388D01*
X75379169Y-52829380D01*
X75285777Y-52603910D01*
X75158262Y-52395826D01*
X75158261Y-52395823D01*
X75122453Y-52353897D01*
X74999759Y-52210241D01*
X74840426Y-52074158D01*
X74814176Y-52051738D01*
X74814173Y-52051737D01*
X74606089Y-51924222D01*
X74380618Y-51830830D01*
X74380621Y-51830830D01*
X74274992Y-51805470D01*
X74143302Y-51773854D01*
X74143300Y-51773853D01*
X74143297Y-51773853D01*
X73900000Y-51754706D01*
X73656702Y-51773853D01*
X73419380Y-51830830D01*
X73193910Y-51924222D01*
X72985826Y-52051737D01*
X72985823Y-52051738D01*
X72800241Y-52210241D01*
X72641738Y-52395823D01*
X72641737Y-52395826D01*
X72514222Y-52603910D01*
X72455180Y-52746453D01*
X72411339Y-52800856D01*
X72345045Y-52822921D01*
X72277346Y-52805642D01*
X72229735Y-52754505D01*
X72216619Y-52699000D01*
X72216619Y-51888721D01*
X69405037Y-51888721D01*
X69405037Y-55695321D01*
X66759683Y-55695321D01*
X66716384Y-45582271D01*
X69515037Y-45582271D01*
X69515037Y-51031143D01*
X72326619Y-51031143D01*
X72326619Y-49149618D01*
X72346304Y-49082579D01*
X72399108Y-49036824D01*
X72468266Y-49026880D01*
X72531822Y-49055905D01*
X72556346Y-49084828D01*
X72641737Y-49224173D01*
X72641738Y-49224176D01*
X72641741Y-49224179D01*
X72800241Y-49409759D01*
X72943897Y-49532453D01*
X72985823Y-49568261D01*
X72985826Y-49568262D01*
X73193910Y-49695777D01*
X73419381Y-49789169D01*
X73419378Y-49789169D01*
X73419384Y-49789170D01*
X73419388Y-49789172D01*
X73656698Y-49846146D01*
X73900000Y-49865294D01*
X74143302Y-49846146D01*
X74380612Y-49789172D01*
X74606089Y-49695777D01*
X74814179Y-49568259D01*
X74999759Y-49409759D01*
X75158259Y-49224179D01*
X75285777Y-49016089D01*
X75379172Y-48790612D01*
X75436146Y-48553302D01*
X75455294Y-48310000D01*
X75436146Y-48066698D01*
X75379172Y-47829388D01*
X75347071Y-47751888D01*
X75285777Y-47603910D01*
X75158262Y-47395826D01*
X75158261Y-47395823D01*
X75083489Y-47308277D01*
X74999759Y-47210241D01*
X74877063Y-47105449D01*
X74814176Y-47051738D01*
X74814173Y-47051737D01*
X74606089Y-46924222D01*
X74380618Y-46830830D01*
X74380621Y-46830830D01*
X74274992Y-46805470D01*
X74143302Y-46773854D01*
X74143300Y-46773853D01*
X74143297Y-46773853D01*
X73900000Y-46754706D01*
X73656702Y-46773853D01*
X73419380Y-46830830D01*
X73193910Y-46924222D01*
X72985826Y-47051737D01*
X72985823Y-47051738D01*
X72800241Y-47210241D01*
X72641738Y-47395823D01*
X72641737Y-47395826D01*
X72556346Y-47535171D01*
X72504534Y-47582046D01*
X72435604Y-47593469D01*
X72371442Y-47565811D01*
X72332417Y-47507856D01*
X72326619Y-47470381D01*
X72326619Y-45582271D01*
X69515037Y-45582271D01*
X66716384Y-45582271D01*
X66701041Y-41998768D01*
X66720437Y-41931649D01*
X66773045Y-41885668D01*
X66842160Y-41875429D01*
X66865303Y-41880960D01*
X66890385Y-41889571D01*
X67135665Y-41930500D01*
X67384335Y-41930500D01*
X67629614Y-41889571D01*
X67864810Y-41808828D01*
X68083509Y-41690474D01*
X68279744Y-41537738D01*
X68448164Y-41354785D01*
X68551928Y-41195962D01*
X69431799Y-41195962D01*
X69431799Y-45008493D01*
X72314343Y-45008493D01*
X72314343Y-44831934D01*
X72334028Y-44764895D01*
X72386832Y-44719140D01*
X72455990Y-44709196D01*
X72512654Y-44732668D01*
X72607664Y-44803793D01*
X72607671Y-44803797D01*
X72742517Y-44854091D01*
X72742516Y-44854091D01*
X72749444Y-44854835D01*
X72802127Y-44860500D01*
X74997872Y-44860499D01*
X75057483Y-44854091D01*
X75192331Y-44803796D01*
X75307546Y-44717546D01*
X75393796Y-44602331D01*
X75444091Y-44467483D01*
X75450500Y-44407873D01*
X75450499Y-42212128D01*
X75444091Y-42152517D01*
X75438056Y-42136337D01*
X75393797Y-42017671D01*
X75393793Y-42017664D01*
X75307547Y-41902455D01*
X75307544Y-41902452D01*
X75192335Y-41816206D01*
X75192328Y-41816202D01*
X75057482Y-41765908D01*
X75057483Y-41765908D01*
X74997883Y-41759501D01*
X74997881Y-41759500D01*
X74997873Y-41759500D01*
X74997864Y-41759500D01*
X72802129Y-41759500D01*
X72802123Y-41759501D01*
X72742516Y-41765908D01*
X72607671Y-41816202D01*
X72607668Y-41816204D01*
X72512654Y-41887332D01*
X72447190Y-41911749D01*
X72378917Y-41896897D01*
X72329511Y-41847492D01*
X72314343Y-41788065D01*
X72314343Y-41195962D01*
X69431799Y-41195962D01*
X68551928Y-41195962D01*
X68584173Y-41146607D01*
X68684063Y-40918881D01*
X68745108Y-40677821D01*
X68749629Y-40623261D01*
X68765643Y-40430005D01*
X68765643Y-40429994D01*
X68745109Y-40182187D01*
X68745107Y-40182175D01*
X68684063Y-39941118D01*
X68584173Y-39713393D01*
X68519528Y-39614445D01*
X68499340Y-39547555D01*
X68518521Y-39480370D01*
X68570980Y-39434220D01*
X68623499Y-39422625D01*
X122988366Y-39496440D01*
G37*
%TD.AperFunction*%
%TD*%
M02*
